<?xml version="1.0" encoding="utf-8"?>
<!-- Generator: Adobe Illustrator 23.0.3, SVG Export Plug-In . SVG Version: 6.00 Build 0)  -->
<svg version="1.1" id="Layer_1" xmlns="http://www.w3.org/2000/svg" xmlns:xlink="http://www.w3.org/1999/xlink" x="0px" y="0px"
	 viewBox="0 0 464 464" style="enable-background:new 0 0 464 464;" xml:space="preserve">
<style type="text/css">
	.st0{fill:#3A52A4;}
	.st1{fill:#203A84;}
	.st2{fill:#B9D873;}
	.st3{fill:#94C652;}
	.st4{fill:#30093E;}
	.st5{fill:#7AA03F;}
	.st6{fill:#8B2783;}
	.st7{fill:#634A9E;}
	.st8{fill:#008E9A;}
</style>
<path class="st0" d="M343.2,80.2C412.5,83.1,440,128,440,128l-48,40c-18.6-37.2-38.5-53.6-48.8-60.2V80.2z"/>
<path class="st1" d="M343.2,97.5c49.9,6.9,74.3,35.8,80.4,44.2L392,168c-18.6-37.2-38.5-53.6-48.8-60.2V97.5z"/>
<path class="st0" d="M120.8,80.2C51.5,83.1,24,128,24,128l48,40c18.6-37.2,38.5-53.6,48.8-60.2C120.8,107.8,120.8,80.2,120.8,80.2z"
	/>
<path class="st1" d="M120.8,97.5c-49.9,6.9-74.3,35.8-80.4,44.2L72,168c18.6-37.2,38.5-53.6,48.8-60.2
	C120.8,107.8,120.8,97.5,120.8,97.5z"/>
<g>
	<g>
		<path class="st2" d="M202.7,464L202.7,464c11.8,0,21.3-9.5,21.3-21.3V344h-56l13.5,101.5C182.9,456.1,192,464,202.7,464z"/>
	</g>
</g>
<g>
	<g>
		<path class="st2" d="M261.3,464L261.3,464c-11.8,0-21.3-9.5-21.3-21.3V344h56l-13.5,101.5C281.1,456.1,272,464,261.3,464z"/>
	</g>
</g>
<g>
	<path class="st3" d="M292.8,368l3.2-24h-32h-24v98.7c0,11.8,9.5,21.3,21.3,21.3c4.4,0,8.5-1.4,12-3.7c-5.6-3.8-9.3-10.3-9.3-17.6
		V368H292.8z"/>
	<path class="st3" d="M168,344l13.5,101.5c1.4,10.6,10.5,18.5,21.1,18.5c4.5,0,8.6-1.4,12.1-3.7c-4.9-3.3-8.4-8.5-9.2-14.8
		L195.2,368H224v-24h-32H168z"/>
</g>
<g>
	<g>
		<path class="st2" d="M205.5,227L105,285c-10.5,6.1-24,2.5-30.1-8.1l0,0c-6.1-10.5-2.5-24,8.1-30.1l100.5-58
			c10.5-6.1,24-2.5,30.1,8.1l0,0C219.6,207.5,216,221,205.5,227z"/>
	</g>
</g>
<g>
	<g>
		<path class="st3" d="M199.5,205L99.1,263c-8.7,5-12.6,15.1-10.3,24.3c5.3,1.3,11.1,0.7,16.2-2.3l100.5-58
			c8.7-5,12.6-15.1,10.3-24.3C210.4,201.4,204.6,202,199.5,205z"/>
	</g>
</g>
<g>
	<g>
		<path class="st2" d="M259,227l100.5,58c10.5,6.1,24,2.5,30.1-8.1l0,0c6.1-10.5,2.5-24-8.1-30.1l-100.5-58
			c-10.5-6.1-24-2.5-30.1,8.1l0,0C244.9,207.5,248.5,221,259,227z"/>
	</g>
</g>
<g>
	<g>
		<path class="st3" d="M265,205l100.5,58c8.7,5,12.6,15.1,10.3,24.3c-5.3,1.3-11.1,0.7-16.2-2.3L259,227c-8.7-5-12.6-15.1-10.3-24.3
			C254.1,201.4,259.9,202,265,205z"/>
	</g>
</g>
<g>
	<g>
		<path class="st4" d="M296,184H168l-45.1,157.8c-1.5,5.1,2.4,10.2,7.7,10.2H232h101.4c5.3,0,9.2-5.1,7.7-10.2L296,184z"/>
	</g>
</g>
<g>
	<g>
		<ellipse class="st5" cx="232" cy="200" rx="40" ry="24"/>
	</g>
</g>
<g>
	<g>
		<ellipse class="st2" cx="232" cy="108" rx="120" ry="100"/>
	</g>
</g>
<g>
	<g>
		<path class="st6" d="M180,144L180,144c-6.6,0-12-5.4-12-12v-16c0-6.6,5.4-12,12-12l0,0c6.6,0,12,5.4,12,12v16
			C192,138.6,186.6,144,180,144z"/>
	</g>
</g>
<g>
	<g>
		<path class="st6" d="M284,144L284,144c-6.6,0-12-5.4-12-12v-16c0-6.6,5.4-12,12-12l0,0c6.6,0,12,5.4,12,12v16
			C296,138.6,290.6,144,284,144z"/>
	</g>
</g>
<g>
	<g>
		<g>
			<path class="st5" d="M231.7,184c-13.6,0-26.4-3.3-35.9-9.2c-3.8-2.3-4.9-7.3-2.6-11c2.3-3.8,7.3-4.9,11-2.6
				c6.9,4.3,17,6.8,27.5,6.8s20.5-2.5,27.5-6.8c3.7-2.3,8.7-1.2,11,2.6c2.3,3.8,1.2,8.7-2.6,11C258.1,180.7,245.3,184,231.7,184z"/>
		</g>
	</g>
</g>
<g>
	<g>
		<path class="st3" d="M152,108c0-49.5,43.3-90.6,100-98.5C245.5,8.6,238.8,8,232,8c-66.3,0-120,44.8-120,100s53.7,100,120,100
			c6.8,0,13.5-0.6,20-1.5C195.3,198.6,152,157.5,152,108z"/>
	</g>
</g>
<g>
	<g>
		<path class="st0" d="M249.6,1.1L249.6,1.1c-0.2,0-0.5-0.1-0.7-0.1c-2.2-0.2-4.4-0.4-6.6-0.6C238.9,0.2,235.5,0,232,0
			s-6.9,0.2-10.3,0.4c-2.2,0.1-4.4,0.4-6.6,0.6c-0.2,0-0.5,0-0.7,0.1v0c-55.8,6.2-100.6,41.3-111.7,86.8C174.3,87.1,232,52,232,8.8
			c0,43.2,57.7,78.3,129.3,79.1C350.2,42.5,305.4,7.3,249.6,1.1z"/>
	</g>
</g>
<g>
	<g>
		<g>
			<path class="st1" d="M255.6,2c-2-0.3-4-0.6-6-0.9v0c-0.2,0-0.5,0-0.7-0.1c-2.2-0.2-4.4-0.4-6.6-0.6C238.9,0.2,235.5,0,232,0
				s-6.9,0.2-10.3,0.4c-2.2,0.1-4.4,0.4-6.6,0.6c-0.2,0-0.5,0-0.7,0.1v0c-55.8,6.2-100.6,41.3-111.7,86.8
				c17.2-0.2,33.5-2.4,48.5-6.2C164.2,40.8,204.9,9.4,255.6,2z"/>
		</g>
	</g>
</g>
<g>
	<g>
		<circle class="st7" cx="280" cy="320" r="8"/>
	</g>
</g>
<g>
	<g>
		<circle class="st8" cx="312" cy="320" r="8"/>
	</g>
</g>
<g>
	<g>
		<circle class="st7" cx="216" cy="320" r="8"/>
	</g>
</g>
<g>
	<g>
		<ellipse transform="matrix(0.1602 -0.9871 0.9871 0.1602 -107.5907 513.5423)" class="st8" cx="248" cy="320" rx="8" ry="8"/>
	</g>
</g>
<g>
	<g>
		<circle class="st8" cx="280" cy="272" r="8"/>
	</g>
</g>
<g>
	<g>
		<circle class="st7" cx="184" cy="272" r="8"/>
	</g>
</g>
<g>
	<g>
		<circle class="st8" cx="216" cy="272" r="8"/>
	</g>
</g>
<g>
	<g>
		<ellipse transform="matrix(0.1602 -0.9871 0.9871 0.1602 -60.2105 473.231)" class="st7" cx="248" cy="272" rx="8" ry="8"/>
	</g>
</g>
<g>
	<g>
		<circle class="st8" cx="296" cy="296" r="8"/>
	</g>
</g>
<g>
	<g>
		<circle class="st7" cx="200" cy="296" r="8"/>
	</g>
</g>
<g>
	<g>
		<circle class="st7" cx="152" cy="320" r="8"/>
	</g>
</g>
<g>
	<g>
		<circle class="st8" cx="232" cy="296" r="8"/>
	</g>
</g>
<g>
	<g>
		<circle class="st7" cx="264" cy="296" r="8"/>
	</g>
</g>
<g>
	<g>
		<circle class="st7" cx="312" cy="272" r="8"/>
	</g>
</g>
<g>
	<g>
		<circle class="st8" cx="184" cy="320" r="8"/>
	</g>
</g>
<g>
	<g>
		<circle class="st8" cx="152" cy="272" r="8"/>
	</g>
</g>
<g>
	<g>
		<circle class="st8" cx="168" cy="296" r="8"/>
	</g>
</g>
<g>
	<g>
		<path class="st7" d="M325.8,288.4c-3.3,1-5.8,3.9-5.8,7.6c0,4.4,3.6,8,8,8c0.8,0,1.5-0.2,2.2-0.4L325.8,288.4z"/>
	</g>
</g>
<g>
	<g>
		<path class="st7" d="M136,304c4.4,0,8-3.6,8-8c0-3.7-2.5-6.6-5.8-7.6l-4.3,15.1C134.5,303.8,135.2,304,136,304z"/>
	</g>
</g>
</svg>
