<svg height="438pt" viewBox="-9 0 438 438.49999" width="438pt" xmlns="http://www.w3.org/2000/svg"><path d="m297.421875 277.214844c-3.867187 0-7-3.132813-7-7v-13.554688c0-13.050781-10.578125-23.628906-23.628906-23.628906s-23.632813 10.578125-23.632813 23.628906v13.554688c0 3.867187-3.132812 7-7 7-3.863281 0-7-3.132813-7-7v-13.554688c0-20.78125 16.847656-37.628906 37.632813-37.628906 20.78125 0 37.628906 16.847656 37.628906 37.628906v13.554688c0 3.867187-3.132813 7-7 7zm0 0" fill="#ffdf46"/><path d="m358.683594 277.214844c-3.867188 0-7-3.132813-7-7v-13.554688c0-13.050781-10.582032-23.628906-23.632813-23.628906s-23.628906 10.578125-23.628906 23.628906v13.554688c0 3.867187-3.132813 7-7 7s-7-3.132813-7-7v-13.554688c0-20.78125 16.847656-37.628906 37.628906-37.628906 20.785157 0 37.632813 16.847656 37.632813 37.628906v13.554688c0 3.867187-3.136719 7-7 7zm0 0" fill="#ffdf46"/><path d="m266.792969 219.03125c-.917969 0-1.824219.074219-2.726563.140625 19.652344 1.4375 34.871094 17.785156 34.902344 37.492187v13.554688c0 2.8125-1.679688 5.351562-4.269531 6.449219 2.160156.914062 4.636719.683593 6.59375-.613281 1.953125-1.296876 3.132812-3.488282 3.132812-5.835938v-13.558594c-.023437-20.773437-16.859375-37.605468-37.632812-37.628906zm0 0" fill="#ffc32c"/><path d="m328.054688 219.03125c-.921876 0-1.824219.074219-2.730469.140625 19.65625 1.4375 34.875 17.785156 34.90625 37.492187v13.554688c0 2.8125-1.683594 5.351562-4.273438 6.449219 2.164063.914062 4.636719.683593 6.59375-.613281 1.957031-1.296876 3.132813-3.488282 3.136719-5.835938v-13.558594c-.027344-20.773437-16.859375-37.605468-37.632812-37.628906zm0 0" fill="#ffc32c"/><path d="m210.339844 315.277344h174.167968v123.222656h-174.167968zm0 0" fill="#ffdf46"/><path d="m287.511719 315.277344h39.378906v123.222656h-39.378906zm0 0" fill="#ffc32c"/><path d="m210.339844 315.277344h174.167968v12.46875h-174.167968zm0 0" fill="#ffc32c"/><path d="m365.683594 315.277344h18.824218v123.222656h-18.824218zm0 0" fill="#ffc32c"/><path d="m196.808594 270.214844h201.230468v45.0625h-201.230468zm0 0" fill="#fc3e81"/><path d="m287.511719 270.214844h39.378906v45.0625h-39.378906zm0 0" fill="#e02057"/><path d="m382.359375 270.214844h15.679687v45.0625h-15.679687zm0 0" fill="#e02057"/><path d="m.25 0h241.507812v144.890625h-241.507812zm0 0" fill="#9be058"/><path d="m165.257812 72.449219c0 24.4375-19.8125 44.25-44.25 44.25-24.441406 0-44.253906-19.8125-44.253906-44.25 0-24.441407 19.8125-44.253907 44.253906-44.253907 24.4375 0 44.25 19.8125 44.25 44.253907zm0 0" fill="#77b734"/><path d="m139.59375 83.074219c0-8-5.691406-11.164063-14.453125-13.320313v-10.800781c1.714844.53125 3.359375 1.257813 4.90625 2.164063 1.78125 1.066406 4.082031.605468 5.316406-1.066407l.558594-.796875c.664063-.890625.929687-2.015625.730469-3.109375-.195313-1.09375-.839844-2.054687-1.773438-2.652343-2.976562-1.832032-6.296875-3.039063-9.753906-3.546876v-5.699218c0-2.214844-1.789062-4.015625-4.003906-4.03125-2.226563 0-4.03125 1.804687-4.03125 4.03125v5.40625c-8.640625 1.085937-14.355469 6.667968-14.355469 14.421875 0 8.234375 5.851563 11.292969 14.355469 13.472656v11.304687c-2.773438-.640624-5.40625-1.796874-7.753906-3.40625-1.699219-1.148437-3.988282-.828124-5.304688.738282l-.640625.761718c-.738281.863282-1.078125 2.003907-.929687 3.132813.144531 1.128906.761718 2.140625 1.695312 2.789063 3.886719 2.566406 8.316406 4.195312 12.9375 4.761718v3.015625c-.003906 2.226563 1.800781 4.035157 4.027344 4.035157 2.226562 0 4.03125-1.804688 4.03125-4.03125v-2.96875c9.167968-1.175782 14.441406-6.71875 14.441406-14.605469zm-26.734375-20c.113281-2.367188 1.875-4.328125 4.21875-4.695313v9.253906c-2.996094-1.019531-4.21875-2.316406-4.21875-4.5625zm12.28125 25.902343v-9.324218c3.074219 1.042968 4.316406 2.257812 4.316406 4.515625-.113281 2.421875-1.917969 4.429687-4.316406 4.804687zm0 0" fill="#9be058"/><g fill="#77b734"><path d="m241.757812 30.921875v-30.921875h-30.917968c0 17.078125 13.839844 30.921875 30.917968 30.921875zm0 0"/><path d="m31.171875 0h-30.921875v30.921875c17.078125 0 30.921875-13.84375 30.921875-30.921875zm0 0"/><path d="m.25 113.976562v30.917969h30.921875c0-17.074219-13.84375-30.917969-30.921875-30.917969zm0 0"/><path d="m241.757812 113.976562c-17.078124 0-30.917968 13.84375-30.917968 30.917969h30.917968zm0 0"/></g><path d="m399.601562 182.628906c-4.640624-63.109375-40.109374-119.871094-94.800781-151.703125l-17.277343 29.636719c44.917968 26.136719 74.058593 72.746094 77.875 124.578125l-20.800782 1.527344 40.363282 30.738281 35.4375-36.308594zm0 0" fill="#43a3f9"/><path d="m399.601562 182.628906c-4.640624-63.109375-40.109374-119.871094-94.800781-151.703125l-4.644531 7.96875c48.75 32.867188 79.726562 86.28125 84.046875 144.914063l20.800781-1.527344-28.207031 28.898438 8.1875 6.234374 35.4375-36.308593zm0 0" fill="#288aea"/><path d="m45.316406 219.804688c4.640625 63.109374 40.113282 119.871093 94.800782 151.703124l17.273437-29.644531c-44.917969-26.136719-74.054687-72.746093-77.867187-124.574219l20.796874-1.527343-40.359374-30.742188-35.433594 36.3125zm0 0" fill="#43a3f9"/><path d="m79.523438 217.289062 20.796874-1.527343-40.359374-30.742188-4.640626 4.753907 35.058594 26.679687-20.800781 1.527344c3.8125 51.835937 32.953125 98.453125 77.878906 124.589843l-14.316406 24.570313c2.308594 1.480469 4.609375 2.976563 6.992187 4.367187l17.273438-29.644531c-44.925781-26.132812-74.066406-72.742187-77.882812-124.574219zm0 0" fill="#288aea"/><path d="m277.734375 270.214844h39.378906v168.285156h-39.378906zm0 0" fill="#fc3e81"/></svg>