<?xml version="1.0" encoding="utf-8"?>
<!-- Generator: Adobe Illustrator 23.0.3, SVG Export Plug-In . SVG Version: 6.00 Build 0)  -->
<svg version="1.1" id="Layer_1" xmlns="http://www.w3.org/2000/svg" xmlns:xlink="http://www.w3.org/1999/xlink" x="0px" y="0px"
	 viewBox="0 0 512 512" style="enable-background:new 0 0 512 512;" xml:space="preserve">
<style type="text/css">
	.st0{fill:#6A499D;}
	.st1{fill:#594193;}
	.st2{fill:#CBEDF7;}
	.st3{fill:#94D9F8;}
	.st4{fill:#5067BC;}
	.st5{fill:#6A8AE5;}
	.st6{fill:#FFDE46;}
	.st7{fill:#FF9F04;}
</style>
<path class="st0" d="M512,45v75l-74.2,31H50.5L0,120V45c0-8.4,6.6-15,15-15h482C505.4,30,512,36.6,512,45z"/>
<path class="st1" d="M512,45v75l-74.2,31H256V30h241C505.4,30,512,36.6,512,45z"/>
<path class="st2" d="M0,120v377c0,8.4,6.6,15,15,15h482c8.4,0,15-6.6,15-15V120H0z"/>
<path class="st3" d="M512,120v377c0,8.4-6.6,15-15,15H256V120H512z"/>
<path class="st4" d="M436,90c-8.3,0-15-6.7-15-15V15c0-8.3,6.7-15,15-15s15,6.7,15,15v60C451,83.3,444.3,90,436,90z"/>
<g>
	<path class="st5" d="M76,90c-8.3,0-15-6.7-15-15V15c0-8.3,6.7-15,15-15s15,6.7,15,15v60C91,83.3,84.3,90,76,90z"/>
	<path class="st5" d="M166,90c-8.3,0-15-6.7-15-15V15c0-8.3,6.7-15,15-15s15,6.7,15,15v60C181,83.3,174.3,90,166,90z"/>
	<path class="st5" d="M271,15v60c0,8.4-6.6,15-15,15s-15-6.6-15-15V15c0-8.4,6.6-15,15-15S271,6.6,271,15z"/>
</g>
<path class="st4" d="M346,90c-8.3,0-15-6.7-15-15V15c0-8.3,6.7-15,15-15s15,6.7,15,15v60C361,83.3,354.3,90,346,90z"/>
<path class="st4" d="M256,90V0c8.4,0,15,6.6,15,15v60C271,83.4,264.4,90,256,90z"/>
<path class="st5" d="M151,286c0,8.3-6.7,15-15,15H76c-8.3,0-15-6.7-15-15v-60c0-8.3,6.7-15,15-15h60c8.3,0,15,6.7,15,15V286z"/>
<path class="st5" d="M136,451H76c-8.3,0-15-6.7-15-15v-60c0-8.3,6.7-15,15-15h60c8.3,0,15,6.7,15,15v60C151,444.3,144.3,451,136,451
	z"/>
<path class="st5" d="M286,361h-60c-8.4,0-15,6.6-15,15v60c0,8.4,6.6,15,15,15h60c8.4,0,15-6.6,15-15v-60
	C301,367.6,294.4,361,286,361z"/>
<path class="st4" d="M436,301h-60c-8.3,0-15-6.7-15-15v-60c0-8.3,6.7-15,15-15h60c8.3,0,15,6.7,15,15v60
	C451,294.3,444.3,301,436,301z"/>
<path class="st4" d="M436,451h-60c-8.3,0-15-6.7-15-15v-60c0-8.3,6.7-15,15-15h60c8.3,0,15,6.7,15,15v60
	C451,444.3,444.3,451,436,451z"/>
<path class="st6" d="M334,238c-1.8-4.8-5.7-8.4-10.5-9.6l-35.7-9l-20.7-30.3c-2.7-3.9-6.9-6-11.1-6.6h-1.5c-5.1,0-9.9,2.7-12.6,7.2
	l-19.5,31.2l-35.1,10.2c-4.8,1.2-8.7,5.1-10.2,9.9s-0.3,10.2,2.7,14.1l23.7,28.2l-1.2,36.6c0,5.1,2.4,9.9,6.6,12.9
	c3.9,2.7,9.3,3.3,14.1,1.5l33-13.2l35.7,11.7c4.8,1.8,9.9,1.2,14.1-2.1c3.9-3,6.3-7.8,6-12.9l-2.7-36.6l22.5-29.1
	C334.6,248.2,335.5,242.8,334,238z"/>
<path class="st4" d="M301,376v60c0,8.4-6.6,15-15,15h-30v-90h30C294.4,361,301,367.6,301,376z"/>
<path class="st7" d="M334,238c-1.8-4.8-5.7-8.4-10.5-9.6l-35.7-9l-20.7-30.3c-2.7-3.9-6.9-6-11.1-6.6v138.6l35.7,11.7
	c4.8,1.8,9.9,1.2,14.1-2.1c3.9-3,6.3-7.8,6-12.9l-2.7-36.6l22.5-29.1C334.6,248.2,335.5,242.8,334,238z"/>
</svg>
