<svg height="504pt" viewBox="-112 0 504 504" width="504pt" xmlns="http://www.w3.org/2000/svg"><path d="m240.015625 40s-32-40-40-40c-5.925781 0-7.464844 26.351562-7.855469 40zm0 0" fill="#434a54"/><path d="m160.71875 104 59.441406 15.039062 3.839844.960938s7.359375 7.359375 14.238281 19.601562l-84.078125-21.28125 5.839844-14.320312.160156-.320312zm0 0" fill="#f6bb42"/><path d="m216 424v-176c40.160156-35.679688 32.078125-83.761719 22.320312-108.320312v-.078126h-.082031l-84.078125-21.28125-26.160156 57.679688s-168 3.519531-102 272.007812v-.007812h134v-8c0-8.878906-7.121094-16-16-16-16 0-16-16-16-16 0-32 32-128 32-128l32 160v8h40v-8c0-8.878906-7.113281-16-16-16zm0 0" fill="#545c66"/><path d="m232 448h16c4.398438 0 8 3.601562 8 8v40c0 4.398438-3.601562 8-8 8h-240c-4.398438 0-8-3.601562-8-8v-40c0-4.398438 3.601562-8 8-8zm0 0" fill="#656d78"/><path d="m255.992188 172c-1.464844 0-2.871094-.808594-3.578126-2.207031l-16-32c-.980468-1.976563-.183593-4.378907 1.792969-5.367188 1.984375-.976562 4.378907-.195312 5.367188 1.789063l16 32c.984375 1.976562.1875 4.378906-1.789063 5.371094-.578125.277343-1.191406.414062-1.792968.414062zm0 0" fill="#ffce54"/><g fill="#545c66"><path d="m32 480.007812c-2.207031 0-4-1.792968-4-4 0-6.617187 5.382812-12 12-12 2.207031 0 4 1.792969 4 4 0 2.207032-1.792969 4-4 4-2.199219 0-4 1.800782-4 4 0 2.207032-1.785156 4-4 4zm0 0"/><path d="m32 480.007812c-2.207031 0-4-1.792968-4-4 0-2.199218-1.800781-4-4-4-2.207031 0-4-1.792968-4-4 0-2.207031 1.792969-4 4-4 6.617188 0 12 5.382813 12 12 0 2.207032-1.785156 4-4 4zm0 0"/><path d="m32 488c-2.207031 0-4-1.792969-4-4v-7.992188c0-2.207031 1.792969-4 4-4s4 1.792969 4 4v7.992188c0 2.207031-1.785156 4-4 4zm0 0"/><path d="m96 480.007812c-2.207031 0-4-1.792968-4-4 0-6.617187 5.382812-12 12-12 2.207031 0 4 1.792969 4 4 0 2.207032-1.792969 4-4 4-2.199219 0-4 1.800782-4 4 0 2.207032-1.785156 4-4 4zm0 0"/><path d="m96 480.007812c-2.207031 0-4-1.792968-4-4 0-2.199218-1.800781-4-4-4-2.207031 0-4-1.792968-4-4 0-2.207031 1.792969-4 4-4 6.617188 0 12 5.382813 12 12 0 2.207032-1.785156 4-4 4zm0 0"/><path d="m96 488c-2.207031 0-4-1.792969-4-4v-7.992188c0-2.207031 1.792969-4 4-4s4 1.792969 4 4v7.992188c0 2.207031-1.785156 4-4 4zm0 0"/><path d="m64 488c-2.207031 0-4-1.792969-4-4v-15.992188c0-2.207031 1.792969-4 4-4s4 1.792969 4 4v15.992188c0 2.207031-1.785156 4-4 4zm0 0"/><path d="m160 480.007812c-2.207031 0-4-1.792968-4-4 0-6.617187 5.382812-12 12-12 2.207031 0 4 1.792969 4 4 0 2.207032-1.792969 4-4 4-2.199219 0-4 1.800782-4 4 0 2.207032-1.785156 4-4 4zm0 0"/><path d="m160 480.007812c-2.207031 0-4-1.792968-4-4 0-2.199218-1.800781-4-4-4-2.207031 0-4-1.792968-4-4 0-2.207031 1.792969-4 4-4 6.617188 0 12 5.382813 12 12 0 2.207032-1.785156 4-4 4zm0 0"/><path d="m160 488c-2.207031 0-4-1.792969-4-4v-7.992188c0-2.207031 1.792969-4 4-4s4 1.792969 4 4v7.992188c0 2.207031-1.785156 4-4 4zm0 0"/><path d="m128 488c-2.207031 0-4-1.792969-4-4v-15.992188c0-2.207031 1.792969-4 4-4s4 1.792969 4 4v15.992188c0 2.207031-1.785156 4-4 4zm0 0"/><path d="m224 480.007812c-2.207031 0-4-1.792968-4-4 0-6.617187 5.382812-12 12-12 2.207031 0 4 1.792969 4 4 0 2.207032-1.792969 4-4 4-2.199219 0-4 1.800782-4 4 0 2.207032-1.785156 4-4 4zm0 0"/><path d="m224 480.007812c-2.207031 0-4-1.792968-4-4 0-2.199218-1.800781-4-4-4-2.207031 0-4-1.792968-4-4 0-2.207031 1.792969-4 4-4 6.617188 0 12 5.382813 12 12 0 2.207032-1.785156 4-4 4zm0 0"/><path d="m224 488c-2.207031 0-4-1.792969-4-4v-7.992188c0-2.207031 1.792969-4 4-4s4 1.792969 4 4v7.992188c0 2.207031-1.785156 4-4 4zm0 0"/><path d="m192 488c-2.207031 0-4-1.792969-4-4v-15.992188c0-2.207031 1.792969-4 4-4s4 1.792969 4 4v15.992188c0 2.207031-1.785156 4-4 4zm0 0"/><path d="m248 40h-24s-32-40-40-40-8 48-8 48l-16 56 64 16v-14.464844h24.136719c17.703125 0 32.023437-14.320312 32.023437-32.015625v-9.519531zm0 0"/></g></svg>