<?xml version="1.0" encoding="utf-8"?>
<!-- Generator: Adobe Illustrator 23.0.3, SVG Export Plug-In . SVG Version: 6.00 Build 0)  -->
<svg version="1.1" id="Capa_1" xmlns="http://www.w3.org/2000/svg" xmlns:xlink="http://www.w3.org/1999/xlink" x="0px" y="0px"
	 viewBox="0 0 402 402" style="enable-background:new 0 0 402 402;" xml:space="preserve">
<style type="text/css">
	.st0{fill:#010002;}
</style>
<g>
	<path d="M379.6,25.3C363.5,9.2,344.2,1.2,321.5,1.2H84c-22.6,0-42,8-58.1,24.1C9.8,41.4,1.8,60.8,1.8,83.4V321
		c0,22.6,8,42,24.1,58.1C42,395.1,61.3,403.2,84,403.2h237.5c22.6,0,42-8,58.1-24.1c16.1-16.1,24.1-35.5,24.1-58.1V83.4
		C403.7,60.8,395.7,41.4,379.6,25.3z M367.2,321c0,12.6-4.5,23.3-13.4,32.3c-8.9,8.9-19.7,13.4-32.3,13.4H84
		c-12.6,0-23.3-4.5-32.3-13.4c-8.9-8.9-13.4-19.7-13.4-32.3V83.4c0-12.6,4.5-23.3,13.4-32.3c8.9-8.9,19.7-13.4,32.3-13.4h237.5
		c12.6,0,23.3,4.5,32.3,13.4c8.9,8.9,13.4,19.7,13.4,32.3L367.2,321L367.2,321z"/>
</g>
<g>
	<path class="st0" d="M141.6,334.1c-2.5,1.3-5.5,1.5-8.5-1.6l-69-70.4c-6.1-6.2-4.7-14.4,2.4-19.5c9-6.5,21.1-17.2,31.3-32.7
		c4.8-7.3,11.6-7.8,16.3-0.5l17,26.4c4.7,7.3,10.2,16.5,13.1,15.5c1.2-0.4,2.6-1.4,4.3-3.5L286.9,74c5.4-6.8,13.1-6.1,17.1,1.6
		l39.3,75.3c4,7.7,1.8,18.4-5,23.9L160.5,317.7C153.7,323.1,146.3,331.8,141.6,334.1z"/>
</g>
</svg>
