<?xml version="1.0" encoding="utf-8"?>
<!-- Generator: Adobe Illustrator 23.0.3, SVG Export Plug-In . SVG Version: 6.00 Build 0)  -->
<svg version="1.1" id="Capa_1" xmlns="http://www.w3.org/2000/svg" xmlns:xlink="http://www.w3.org/1999/xlink" x="0px" y="0px"
	 viewBox="0 0 782.9 607" style="enable-background:new 0 0 782.9 607;" xml:space="preserve">
<style type="text/css">
	.st0{fill:#25C2CE;}
	.st1{fill:#F4E662;}
	.st2{fill:#ED3B72;}
	.st3{fill:url(#SVGID_1_);}
	.st4{fill:url(#SVGID_2_);}
	.st5{fill:url(#SVGID_3_);}
	.st6{fill:url(#SVGID_4_);}
	.st7{fill:url(#SVGID_5_);}
	.st8{fill:url(#SVGID_6_);}
	.st9{fill:url(#SVGID_7_);}
	.st10{fill:url(#SVGID_8_);}
	.st11{fill:url(#SVGID_9_);}
	.st12{fill:url(#SVGID_10_);}
	.st13{fill:url(#SVGID_11_);}
	.st14{fill:url(#SVGID_12_);}
	.st15{fill:url(#SVGID_13_);}
	.st16{fill:url(#SVGID_14_);}
	.st17{fill:url(#SVGID_15_);}
	.st18{fill:url(#SVGID_16_);}
	.st19{fill:url(#SVGID_17_);}
	.st20{fill:url(#SVGID_18_);}
	.st21{fill:url(#SVGID_19_);}
	.st22{fill:url(#SVGID_20_);}
	.st23{fill:url(#SVGID_21_);}
	.st24{fill:url(#SVGID_22_);}
	.st25{fill:url(#SVGID_23_);}
	.st26{fill:url(#SVGID_24_);}
	.st27{fill:url(#SVGID_25_);}
	.st28{fill:url(#SVGID_26_);}
	.st29{fill:url(#SVGID_27_);}
	.st30{fill:url(#SVGID_28_);}
	.st31{fill:url(#SVGID_29_);}
	.st32{fill:url(#SVGID_30_);}
	.st33{fill:url(#SVGID_31_);}
	.st34{fill:url(#SVGID_32_);}
	.st35{fill:#4C8056;}
	.st36{fill:#7D6599;}
	.st37{fill:#3D324C;}
	.st38{fill:#71C285;}
	.st39{fill:#CC4B4C;}
	.st40{fill:#7ED09E;}
	.st41{fill:#FFD0B8;}
	.st42{fill:#BC6D1E;}
	.st43{fill:#F7B348;}
	.st44{fill:#9376E2;}
	.st45{fill:#745DC6;}
	.st46{fill:#E2B39F;}
	.st47{fill:#E6E6E6;}
	.st48{fill:#CCCCCC;}
	.st49{fill:#4D4D4D;}
	.st50{fill:#D84161;}
	.st51{fill:#C1385C;}
</style>
<g>
	
		<rect x="61.6" y="222" transform="matrix(0.8704 -0.4923 0.4923 0.8704 -162.886 136.8253)" class="st0" width="233.8" height="311.7"/>
	
		<rect x="5.4" y="236.8" transform="matrix(0.8704 -0.4923 0.4923 0.8704 -121.2303 96.2746)" class="st1" width="233.8" height="83.3"/>
	<g>
		<path class="st2" d="M41.7,310.1c-3.2,1.8-4,4.6-1.9,8.3l7.5,13.3c2.1,3.7,4.9,4.5,8.2,2.6c4.3-2.5,3-5.8,2-7.9
			c-0.7-1.5,0.3-2.8,1.9-3.7c2.1-1.2,3.5-1.2,4.9,1.3c3.3,5.8,0.6,12.1-6.1,15.9c-6,3.4-12.6,3.2-17.2-4.7l-7.5-13.3
			c-4.5-8-1.2-13.8,4.8-17.2c6.6-3.8,13.4-2.9,16.5,2.6c1.4,2.5,0.7,3.6-1.4,4.8c-1.8,1-3.4,1.2-4.2-0.2
			C48.4,310.6,46.2,307.5,41.7,310.1z"/>
		<path class="st2" d="M72.1,317.7l-7.5-13.3c-4.5-8-1.3-13.7,5-17.2c6.3-3.6,12.9-3.4,17.4,4.6l7.5,13.3c4.5,8,1.3,13.7-5,17.3
			S76.6,325.7,72.1,317.7z M80.7,295.2c-2.1-3.8-5-4.4-8.1-2.7c-3.1,1.8-4,4.5-1.9,8.3l7.5,13.3c2.1,3.8,4.9,4.5,8.1,2.7
			c3.1-1.8,4-4.6,1.9-8.3L80.7,295.2z"/>
		<path class="st2" d="M119.3,288.5c0,1.3-0.6,2-1.4,2.4s-1.7,0.6-2.8-0.1l-11.3-7.2l11.8,20.9c0.7,1.3-0.5,2.8-2,3.7
			c-1.6,0.9-3.5,1.1-4.2-0.2l-16.9-29.8c-1.3-2.3-0.2-4,1.3-4.9c2.2-1.3,3.5-1.4,6.7,0.6l11.9,7.4l-0.2-14c0-3.7,0.8-4.8,3-6
			c1.6-0.9,3.6-0.9,4.9,1.3l16.9,29.8c0.7,1.3-0.5,2.8-2,3.7c-1.6,0.9-3.5,1.1-4.2-0.2l-11.6-20.5L119.3,288.5z"/>
		<path class="st2" d="M130,255.5c-0.8-1.3,0.4-2.8,2-3.7c1.5-0.9,3.4-1.2,4.2,0.2l17.5,31c0.7,1.3-0.5,2.8-2,3.7
			c-1.6,0.9-3.5,1.1-4.2-0.2L130,255.5z"/>
		<path class="st2" d="M159.6,243.4c-3.2,1.8-4,4.6-1.9,8.3l7.5,13.3c2.1,3.7,4.9,4.5,8.2,2.6c4.3-2.5,3-5.8,2-7.9
			c-0.7-1.5,0.3-2.8,1.9-3.7c2.1-1.2,3.5-1.2,4.9,1.3c3.3,5.8,0.6,12.1-6.1,15.9c-6,3.4-12.6,3.2-17.2-4.7l-7.5-13.3
			c-4.5-8-1.2-13.8,4.8-17.2c6.6-3.8,13.4-2.9,16.5,2.6c1.4,2.5,0.7,3.6-1.4,4.8c-1.8,1-3.4,1.2-4.2-0.2
			C166.3,243.9,164.1,240.8,159.6,243.4z"/>
		<path class="st2" d="M205.5,244c-4-7.2-18.1,3.7-24.5-7.6c-4-7.1,0.7-13,6.2-16.1c2.8-1.6,9.4-4.5,11.2-1.3
			c0.6,1.1,1.1,3.7-0.6,4.7c-1.5,0.8-3.6-0.4-7.6,1.9c-3.4,1.9-4.6,4.4-3.3,6.7c3.3,5.9,17.5-4.8,24.5,7.6
			c3.9,6.8,1.1,13.1-5.5,16.8c-6.3,3.5-12.8,3.1-14.4,0.3c-0.8-1.3-0.6-4,0.8-4.9c2-1.1,5.3,1.8,10.2-0.9
			C205.4,249.5,207.2,246.8,205.5,244z"/>
		<path class="st2" d="M299.8,444c-56.3-24.3-54.4-47-21.6-80.9c-53.4,24.4-59.5-10.1-59.1-67.5c-17.1,61.8-47.8,88.4-81.7,55.6
			c16.4,44.3,26.8,56.9-20.6,58.5c42.7,20.5,28.2,27.9-4.6,61.8c44.3-16.4,46.9,13.2,48.5,60.6c25.2-59.5,37.8-68.2,71.8-35.4
			C216.1,452.6,252.4,445.7,299.8,444z"/>
	</g>
	<path class="st1" d="M237.9,404.5c-21.6-1.3-35.1-6-33.9-26.7c-10,18.2-15,18.6-29.3,3.5c1.3,22.5-1.7,33.5-14.4,52.1
		c20-5.6,19,15.2,18.1,35.9c9.8-18.3,19.7-36.6,34-21.4C211,425.2,220.3,414.4,237.9,404.5z"/>
</g>
<g>
	
		<linearGradient id="SVGID_1_" gradientUnits="userSpaceOnUse" x1="2536.5098" y1="572.0586" x2="2590.9211" y2="689.9497" gradientTransform="matrix(-1.0039 0 0 1.0039 3048.4709 -274.8649)">
		<stop  offset="0" style="stop-color:#92F37F"/>
		<stop  offset="1" style="stop-color:#4AB272"/>
	</linearGradient>
	<path class="st3" d="M312.8,326.2v58.7c0,7.6,6.2,13.8,13.8,13.8H607c11.9,0,22.7-4.8,30.5-12.7s12.7-18.6,12.7-30.5
		c0-23.9-19.3-43.2-43.2-43.2H326.6C319,312.4,312.8,318.6,312.8,326.2L312.8,326.2z"/>
	
		<linearGradient id="SVGID_2_" gradientUnits="userSpaceOnUse" x1="2702.7625" y1="627.9736" x2="2556.4414" y2="627.9736" gradientTransform="matrix(-1.0039 0 0 1.0039 3048.4709 -274.8649)">
		<stop  offset="0" style="stop-color:#4AB272;stop-opacity:0"/>
		<stop  offset="1" style="stop-color:#009245"/>
	</linearGradient>
	<path class="st4" d="M326.6,312.4h108.9c-7.6,0-13.8,6.2-13.8,13.8v58.7c0,7.6,6.2,13.8,13.8,13.8H326.6c-7.6,0-13.8-6.2-13.8-13.8
		v-58.7C312.8,318.6,319,312.4,326.6,312.4z"/>
	
		<linearGradient id="SVGID_3_" gradientUnits="userSpaceOnUse" x1="433.7303" y1="723.5875" x2="288.9329" y2="585.9205" gradientTransform="matrix(1.0039 0 0 1.0039 -0.7806 -274.8649)">
		<stop  offset="0" style="stop-color:#4AB272;stop-opacity:0"/>
		<stop  offset="1" style="stop-color:#009245"/>
	</linearGradient>
	<path class="st5" d="M326.6,398.8h106.2l-0.3-0.3c-5.2-1.2-9.3-5.3-10.4-10.4l-75.6-75.6h-19.8c-7.6,0-13.8,6.2-13.8,13.8V385
		C312.8,392.6,319,398.8,326.6,398.8L326.6,398.8z"/>
	
		<linearGradient id="SVGID_4_" gradientUnits="userSpaceOnUse" x1="2568.4729" y1="605.2228" x2="2568.4729" y2="659.58" gradientTransform="matrix(-1.0039 0 0 1.0039 3048.4709 -274.8649)">
		<stop  offset="0" style="stop-color:#F9F7FC"/>
		<stop  offset="1" style="stop-color:#F0DDFC"/>
	</linearGradient>
	<path class="st6" d="M317.7,388.3h286.4c18.1,0,32.7-14.7,32.7-32.7c0-18.1-14.7-32.7-32.7-32.7H315.9c-7,0-12.7,5.7-12.7,12.7
		v38.2C303.2,381.8,309.7,388.3,317.7,388.3L317.7,388.3z"/>
	
		<linearGradient id="SVGID_5_" gradientUnits="userSpaceOnUse" x1="2569.8088" y1="660.368" x2="2572.4705" y2="591.8458" gradientTransform="matrix(-1.0039 0 0 1.0039 3048.4709 -274.8649)">
		<stop  offset="0" style="stop-color:#F0DDFC;stop-opacity:0"/>
		<stop  offset="0.2889" style="stop-color:#C8B7E0;stop-opacity:0.289"/>
		<stop  offset="0.5915" style="stop-color:#A595C8;stop-opacity:0.592"/>
		<stop  offset="0.8395" style="stop-color:#8F81B8;stop-opacity:0.84"/>
		<stop  offset="1" style="stop-color:#8779B3"/>
	</linearGradient>
	<path class="st7" d="M633,370.9c-5.5,10.4-16.4,17.4-28.9,17.4H317.7c-8,0-14.6-6.5-14.6-14.6v-2.9H633V370.9z"/>
	
		<linearGradient id="SVGID_6_" gradientUnits="userSpaceOnUse" x1="2568.5723" y1="643.9817" x2="2568.5723" y2="605.9536" gradientTransform="matrix(-1.0039 0 0 1.0039 3048.4709 -274.8649)">
		<stop  offset="0" style="stop-color:#F0DDFC;stop-opacity:0"/>
		<stop  offset="0.2889" style="stop-color:#C8B7E0;stop-opacity:0.289"/>
		<stop  offset="0.5915" style="stop-color:#A595C8;stop-opacity:0.592"/>
		<stop  offset="0.8395" style="stop-color:#8F81B8;stop-opacity:0.84"/>
		<stop  offset="1" style="stop-color:#8779B3"/>
	</linearGradient>
	<path class="st8" d="M604.1,388.3H317.7c-8,0-14.6-6.5-14.6-14.6v-18.2h333.6C636.8,373.7,622.1,388.3,604.1,388.3L604.1,388.3z"/>
	
		<linearGradient id="SVGID_7_" gradientUnits="userSpaceOnUse" x1="2568.863" y1="625.3345" x2="2569.5671" y2="601.3978" gradientTransform="matrix(-1.0039 0 0 1.0039 3048.4709 -274.8649)">
		<stop  offset="0" style="stop-color:#F0DDFC;stop-opacity:0"/>
		<stop  offset="0.2889" style="stop-color:#C8B7E0;stop-opacity:0.289"/>
		<stop  offset="0.5915" style="stop-color:#A595C8;stop-opacity:0.592"/>
		<stop  offset="0.8395" style="stop-color:#8F81B8;stop-opacity:0.84"/>
		<stop  offset="1" style="stop-color:#8779B3"/>
	</linearGradient>
	<path class="st9" d="M633.2,340.6c2.3,4.5,3.6,9.6,3.6,15c0,18.1-14.7,32.7-32.7,32.7H317.7c-8,0-14.6-6.5-14.6-14.6v-33.2
		L633.2,340.6L633.2,340.6z"/>
	
		<linearGradient id="SVGID_8_" gradientUnits="userSpaceOnUse" x1="2703.9111" y1="628.0732" x2="2496.9929" y2="628.0732" gradientTransform="matrix(-1.0039 0 0 1.0039 3048.4709 -274.8649)">
		<stop  offset="0" style="stop-color:#F0DDFC;stop-opacity:0"/>
		<stop  offset="0.2889" style="stop-color:#C8B7E0;stop-opacity:0.289"/>
		<stop  offset="0.5915" style="stop-color:#A595C8;stop-opacity:0.592"/>
		<stop  offset="0.8395" style="stop-color:#8F81B8;stop-opacity:0.84"/>
		<stop  offset="1" style="stop-color:#8779B3"/>
	</linearGradient>
	<path class="st10" d="M315.6,322.9h106.5c-0.3,1.1-0.4,2.2-0.4,3.4V385c0,1.2,0.2,2.3,0.4,3.4H317.5c-8,0-14.6-6.5-14.6-14.6v-38.2
		C302.9,328.5,308.6,322.9,315.6,322.9L315.6,322.9z"/>
	
		<linearGradient id="SVGID_9_" gradientUnits="userSpaceOnUse" x1="469.4804" y1="781.9032" x2="469.4804" y2="842.2351" gradientTransform="matrix(1.0039 0 0 1.0039 -0.7806 -274.8649)">
		<stop  offset="0" style="stop-color:#FFDA45"/>
		<stop  offset="1" style="stop-color:#FFA425"/>
	</linearGradient>
	<path class="st11" d="M638.6,498.1v60.3c0,7-5.6,12.7-12.5,13c-0.1,0-0.2,0-0.2,0c-0.1,0-0.2,0-0.2,0H332.2
		c-11.3,0-21.2-6.4-26.2-15.7c-2.2-4.2-3.5-8.9-3.5-13.9v-27c0-5,1.3-9.8,3.5-13.9c0.7-1.2,1.4-2.4,2.2-3.6
		c5.4-7.4,14.1-12.1,23.9-12.1h293.3C632.7,485.1,638.6,490.9,638.6,498.1L638.6,498.1z"/>
	
		<linearGradient id="SVGID_10_" gradientUnits="userSpaceOnUse" x1="469.5302" y1="787.9364" x2="469.5302" y2="814.8339" gradientTransform="matrix(1.0039 0 0 1.0039 -0.7806 -274.8649)">
		<stop  offset="0" style="stop-color:#FFDA45"/>
		<stop  offset="1" style="stop-color:#FFA425"/>
	</linearGradient>
	<path class="st12" d="M638.6,500.8v54.9H306.1c-2.2-4.2-3.5-8.9-3.5-13.9v-27c0-5,1.3-9.8,3.5-13.9L638.6,500.8L638.6,500.8z"/>
	
		<linearGradient id="SVGID_11_" gradientUnits="userSpaceOnUse" x1="335.1543" y1="801.3741" x2="335.1543" y2="822.2445" gradientTransform="matrix(1.0039 0 0 1.0039 -0.7806 -274.8649)">
		<stop  offset="0" style="stop-color:#FF7044"/>
		<stop  offset="1" style="stop-color:#F92814"/>
	</linearGradient>
	<path class="st13" d="M329.3,555.7c-2.2-4.2-3.5-8.9-3.5-13.9v-27c0-5,1.3-9.8,3.5-13.9c0.7-1.2,1.4-2.4,2.2-3.6
		c5.4-7.4,14.1-12.1,23.9-12.1h-9.9c-9.8,0-18.5,4.8-23.9,12.1c-0.8,1.1-1.6,2.3-2.2,3.6c-2.2,4.2-3.5,8.9-3.5,13.9v27
		c0,5,1.3,9.8,3.5,13.9c5,9.3,14.8,15.7,26.2,15.7h9.9C344.1,571.4,334.2,565.1,329.3,555.7z"/>
	
		<linearGradient id="SVGID_12_" gradientUnits="userSpaceOnUse" x1="390.2394" y1="801.3741" x2="390.2394" y2="822.2445" gradientTransform="matrix(1.0039 0 0 1.0039 -0.7806 -274.8649)">
		<stop  offset="0" style="stop-color:#FF7044"/>
		<stop  offset="1" style="stop-color:#F92814"/>
	</linearGradient>
	<path class="st14" d="M384.6,555.7c-2.2-4.2-3.5-8.9-3.5-13.9v-27c0-5,1.3-9.8,3.5-13.9c0.7-1.2,1.4-2.4,2.2-3.6
		c5.4-7.4,14.1-12.1,23.9-12.1h-9.9c-9.8,0-18.5,4.8-23.9,12.1c-0.8,1.1-1.6,2.3-2.2,3.6c-2.2,4.2-3.5,8.9-3.5,13.9v27
		c0,5,1.3,9.8,3.5,13.9c5,9.3,14.8,15.7,26.2,15.7h9.9C399.4,571.4,389.6,565.1,384.6,555.7z"/>
	
		<linearGradient id="SVGID_13_" gradientUnits="userSpaceOnUse" x1="463.2547" y1="809.8748" x2="463.2547" y2="756.1243" gradientTransform="matrix(1.0039 0 0 1.0039 -0.7806 -274.8649)">
		<stop  offset="0" style="stop-color:#FFDA45;stop-opacity:0"/>
		<stop  offset="1" style="stop-color:#FCEE21"/>
	</linearGradient>
	<path class="st15" d="M626.1,510.3v60.3c0,0.3,0,0.6,0,0.8c-0.1,0-0.2,0-0.2,0c-0.1,0-0.2,0-0.2,0H332.2
		c-11.3,0-21.2-6.4-26.2-15.7c-2.2-4.2-3.5-8.9-3.5-13.9v-27c0-5,1.3-9.8,3.5-13.9c0.7-1.2,1.4-2.4,2.2-3.6H613
		c3.5,0,6.6,1.4,8.9,3.6C624.5,503.2,626.1,506.5,626.1,510.3z"/>
	
		<linearGradient id="SVGID_14_" gradientUnits="userSpaceOnUse" x1="497.2922" y1="754.3796" x2="542.0931" y2="851.449" gradientTransform="matrix(1.0039 0 0 1.0039 -0.7806 -274.8649)">
		<stop  offset="0" style="stop-color:#FFDA45"/>
		<stop  offset="1" style="stop-color:#FFA425"/>
	</linearGradient>
	<path class="st16" d="M640.6,498.9v58.7c0,7.6-6.2,13.8-13.8,13.8H431.2c-11.9,0-22.7-4.8-30.5-12.7S388,540.2,388,528.3
		c0-23.9,19.3-43.2,43.2-43.2h195.6C634.4,485.1,640.6,491.3,640.6,498.9L640.6,498.9z"/>
	
		<linearGradient id="SVGID_15_" gradientUnits="userSpaceOnUse" x1="524.5163" y1="777.2254" x2="524.5163" y2="831.5835" gradientTransform="matrix(1.0039 0 0 1.0039 -0.7806 -274.8649)">
		<stop  offset="0" style="stop-color:#F9F7FC"/>
		<stop  offset="1" style="stop-color:#F0DDFC"/>
	</linearGradient>
	<path class="st17" d="M635.7,561H434.1c-18.1,0-32.7-14.7-32.7-32.7c0-18.1,14.7-32.7,32.7-32.7h203.4c7,0,12.7,5.7,12.7,12.7v38.2
		C650.3,554.5,643.7,561,635.7,561L635.7,561z"/>
	
		<linearGradient id="SVGID_16_" gradientUnits="userSpaceOnUse" x1="525.894" y1="831.3532" x2="528.2551" y2="770.5753" gradientTransform="matrix(1.0039 0 0 1.0039 -0.7806 -274.8649)">
		<stop  offset="0" style="stop-color:#F0DDFC;stop-opacity:0"/>
		<stop  offset="0.2889" style="stop-color:#C8B7E0;stop-opacity:0.289"/>
		<stop  offset="0.5915" style="stop-color:#A595C8;stop-opacity:0.592"/>
		<stop  offset="0.8395" style="stop-color:#8F81B8;stop-opacity:0.84"/>
		<stop  offset="1" style="stop-color:#8779B3"/>
	</linearGradient>
	<path class="st18" d="M405.2,543.6c5.5,10.4,16.4,17.4,28.9,17.4h201.6c8,0,14.6-6.5,14.6-14.6v-2.9L405.2,543.6z"/>
	
		<linearGradient id="SVGID_17_" gradientUnits="userSpaceOnUse" x1="524.5656" y1="815.9843" x2="524.5656" y2="777.9571" gradientTransform="matrix(1.0039 0 0 1.0039 -0.7806 -274.8649)">
		<stop  offset="0" style="stop-color:#F0DDFC;stop-opacity:0"/>
		<stop  offset="0.2889" style="stop-color:#C8B7E0;stop-opacity:0.289"/>
		<stop  offset="0.5915" style="stop-color:#A595C8;stop-opacity:0.592"/>
		<stop  offset="0.8395" style="stop-color:#8F81B8;stop-opacity:0.84"/>
		<stop  offset="1" style="stop-color:#8779B3"/>
	</linearGradient>
	<path class="st19" d="M434.1,561h201.6c8,0,14.6-6.5,14.6-14.6v-18.2H401.4C401.4,546.3,416.1,561,434.1,561L434.1,561z"/>
	
		<linearGradient id="SVGID_18_" gradientUnits="userSpaceOnUse" x1="524.892" y1="797.8235" x2="525.5644" y2="774.9414" gradientTransform="matrix(1.0039 0 0 1.0039 -0.7806 -274.8649)">
		<stop  offset="0" style="stop-color:#F0DDFC;stop-opacity:0"/>
		<stop  offset="0.2889" style="stop-color:#C8B7E0;stop-opacity:0.289"/>
		<stop  offset="0.5915" style="stop-color:#A595C8;stop-opacity:0.592"/>
		<stop  offset="0.8395" style="stop-color:#8F81B8;stop-opacity:0.84"/>
		<stop  offset="1" style="stop-color:#8779B3"/>
	</linearGradient>
	<path class="st20" d="M405,513.3c-2.3,4.5-3.6,9.6-3.6,15c0,18.1,14.7,32.7,32.7,32.7h201.6c8,0,14.6-6.5,14.6-14.6v-33.2H405
		V513.3z"/>
	
		<linearGradient id="SVGID_19_" gradientUnits="userSpaceOnUse" x1="621.1321" y1="2832.7896" x2="727.5314" y2="2832.7896" gradientTransform="matrix(0 1.0039 -1.0039 0 3320.3684 -224.7466)">
		<stop  offset="0" style="stop-color:#4A98F7"/>
		<stop  offset="1" style="stop-color:#0469BC"/>
	</linearGradient>
	<path class="st21" d="M302.6,472.1v-60.3c0-7.2,5.8-13,13-13h321.9c7.2,0,13,5.8,13,13v60.3c0,7.2-5.8,13-13,13H315.6
		C308.4,485.1,302.6,479.2,302.6,472.1z"/>
	
		<linearGradient id="SVGID_20_" gradientUnits="userSpaceOnUse" x1="636.7711" y1="2832.7896" x2="676.9819" y2="2832.7896" gradientTransform="matrix(0 1.0039 -1.0039 0 3320.3684 -224.7466)">
		<stop  offset="0" style="stop-color:#4A98F7"/>
		<stop  offset="1" style="stop-color:#0469BC"/>
	</linearGradient>
	<path class="st22" d="M302.6,469.4v-54.9h347.9v54.9H302.6z"/>
	
		<linearGradient id="SVGID_21_" gradientUnits="userSpaceOnUse" x1="621.132" y1="2708.325" x2="684.3554" y2="2708.325" gradientTransform="matrix(0 1.0039 -1.0039 0 3320.3684 -224.7466)">
		<stop  offset="0" style="stop-color:#FFDA45"/>
		<stop  offset="1" style="stop-color:#FFA425"/>
	</linearGradient>
	<path class="st23" d="M595.8,485.1v-86.3h11.4v86.3L595.8,485.1L595.8,485.1z"/>
	
		<linearGradient id="SVGID_22_" gradientUnits="userSpaceOnUse" x1="621.132" y1="2735.519" x2="684.3554" y2="2735.519" gradientTransform="matrix(0 1.0039 -1.0039 0 3320.3684 -224.7466)">
		<stop  offset="0" style="stop-color:#FFDA45"/>
		<stop  offset="1" style="stop-color:#FFA425"/>
	</linearGradient>
	<path class="st24" d="M568.5,485.1v-86.3h11.4v86.3L568.5,485.1L568.5,485.1z"/>
	
		<linearGradient id="SVGID_23_" gradientUnits="userSpaceOnUse" x1="621.132" y1="2930.0603" x2="684.3554" y2="2930.0603" gradientTransform="matrix(0 1.0039 -1.0039 0 3320.3684 -224.7466)">
		<stop  offset="0" style="stop-color:#FFDA45"/>
		<stop  offset="1" style="stop-color:#FFA425"/>
	</linearGradient>
	<path class="st25" d="M373.2,485.1v-86.3h11.4v86.3L373.2,485.1L373.2,485.1z"/>
	
		<linearGradient id="SVGID_24_" gradientUnits="userSpaceOnUse" x1="621.132" y1="2957.2542" x2="684.3554" y2="2957.2542" gradientTransform="matrix(0 1.0039 -1.0039 0 3320.3684 -224.7466)">
		<stop  offset="0" style="stop-color:#FFDA45"/>
		<stop  offset="1" style="stop-color:#FFA425"/>
	</linearGradient>
	<path class="st26" d="M345.9,485.1v-86.3h11.4v86.3L345.9,485.1L345.9,485.1z"/>
	
		<linearGradient id="SVGID_25_" gradientUnits="userSpaceOnUse" x1="627.4677" y1="2819.1416" x2="529.3925" y2="2773.4126" gradientTransform="matrix(0 1.0039 -1.0039 0 3320.3684 -224.7466)">
		<stop  offset="0" style="stop-color:#18CFFC;stop-opacity:0"/>
		<stop  offset="1" style="stop-color:#65E1DC"/>
	</linearGradient>
	<path class="st27" d="M638,423.9c0-7.2-5.8-13-13-13H303.1c-0.2,0-0.3,0-0.5,0c0,0.3,0,0.6,0,0.8V472c0,7.2,5.8,13,13,13h321.9
		c0.2,0,0.3,0,0.5,0c0-0.3,0-0.6,0-0.8V423.9z"/>
	
		<linearGradient id="SVGID_26_" gradientUnits="userSpaceOnUse" x1="387.1771" y1="663.5129" x2="280.2242" y2="591.1146" gradientTransform="matrix(1.0039 0 0 1.0039 -0.7806 -274.8649)">
		<stop  offset="0" style="stop-color:#F0DDFC;stop-opacity:0"/>
		<stop  offset="0.2889" style="stop-color:#C8B7E0;stop-opacity:0.289"/>
		<stop  offset="0.5915" style="stop-color:#A595C8;stop-opacity:0.592"/>
		<stop  offset="0.8395" style="stop-color:#8F81B8;stop-opacity:0.84"/>
		<stop  offset="1" style="stop-color:#8779B3"/>
	</linearGradient>
	<path class="st28" d="M313.1,323.2c-0.2,1-0.4,2-0.4,3.1V385c0,0.9,0.1,1.7,0.2,2.6c1.5,0.5,3.1,0.8,4.7,0.8H422
		c0-0.1-0.1-0.2-0.1-0.3L356.8,323h-41C314.9,322.9,314,323,313.1,323.2L313.1,323.2z"/>
	
		<linearGradient id="SVGID_27_" gradientUnits="userSpaceOnUse" x1="328.4397" y1="721.0573" x2="434.8401" y2="721.0573" gradientTransform="matrix(0.9718 0.252 -0.252 0.9718 99.8146 -396.4185)">
		<stop  offset="0" style="stop-color:#FF7044"/>
		<stop  offset="1" style="stop-color:#F92814"/>
	</linearGradient>
	<path class="st29" d="M264.4,573.8L206,558.6c-6.9-1.8-11.1-8.9-9.3-15.8l80.9-311.6c1.8-6.9,8.9-11.1,15.8-9.3l58.4,15.2
		c6.9,1.8,11.1,8.9,9.3,15.8l-80.9,311.6C278.5,571.4,271.4,575.6,264.4,573.8z"/>
	
		<linearGradient id="SVGID_28_" gradientUnits="userSpaceOnUse" x1="344.0824" y1="721.0448" x2="384.2924" y2="721.0448" gradientTransform="matrix(0.9718 0.252 -0.252 0.9718 99.8146 -396.4185)">
		<stop  offset="0" style="stop-color:#FF7044"/>
		<stop  offset="1" style="stop-color:#F92814"/>
	</linearGradient>
	<path class="st30" d="M261.8,573.1l-53.1-13.8l87.4-336.7l53.1,13.8L261.8,573.1z"/>
	
		<linearGradient id="SVGID_29_" gradientUnits="userSpaceOnUse" x1="328.395" y1="596.6117" x2="391.6184" y2="596.6117" gradientTransform="matrix(0.9718 0.252 -0.252 0.9718 99.8146 -396.4185)">
		<stop  offset="0" style="stop-color:#F9F7FC"/>
		<stop  offset="1" style="stop-color:#F0DDFC"/>
	</linearGradient>
	<path class="st31" d="M350.7,293.3l-83.5-21.7l2.9-11l83.5,21.7L350.7,293.3z"/>
	
		<linearGradient id="SVGID_30_" gradientUnits="userSpaceOnUse" x1="328.4397" y1="845.4529" x2="391.6631" y2="845.4529" gradientTransform="matrix(0.9718 0.252 -0.252 0.9718 99.8146 -396.4185)">
		<stop  offset="0" style="stop-color:#F9F7FC"/>
		<stop  offset="1" style="stop-color:#F0DDFC"/>
	</linearGradient>
	<path class="st32" d="M287.9,535.1l-83.5-21.7l2.9-11l83.5,21.7L287.9,535.1z"/>
	
		<linearGradient id="SVGID_31_" gradientUnits="userSpaceOnUse" x1="328.4397" y1="818.0804" x2="391.6631" y2="818.0804" gradientTransform="matrix(0.9718 0.252 -0.252 0.9718 99.8146 -396.4185)">
		<stop  offset="0" style="stop-color:#F9F7FC"/>
		<stop  offset="1" style="stop-color:#F0DDFC"/>
	</linearGradient>
	<path class="st33" d="M294.8,508.5l-83.5-21.7l2.9-11l83.5,21.7L294.8,508.5z"/>
	
		<linearGradient id="SVGID_32_" gradientUnits="userSpaceOnUse" x1="360.3463" y1="722.8229" x2="287.2411" y2="703.8701" gradientTransform="matrix(0.9718 0.252 -0.252 0.9718 99.8146 -396.4185)">
		<stop  offset="0" style="stop-color:#FF7044;stop-opacity:0"/>
		<stop  offset="1" style="stop-color:#FFA425"/>
	</linearGradient>
	<path class="st34" d="M302.1,237c-6.9-1.8-14,2.4-15.8,9.3l-80.9,311.6c0,0.2-0.1,0.3-0.1,0.5c0.3,0.1,0.5,0.2,0.8,0.2l58.4,15.2
		c6.9,1.8,14-2.4,15.8-9.3l80.9-311.6c0-0.2,0.1-0.3,0.1-0.5c-0.3-0.1-0.5-0.2-0.8-0.2L302.1,237z"/>
</g>
<g>
	<path class="st35" d="M386.1,189.5c-12.3,15.7-38.6,18.1-64.9,12.8c-36.1-7.2-43.3,28.9-43.3,28.9c13.3-8.3,30.1-8.3,43.3,0
		c21.5,14.4,36,21.6,57.4,0.4v-0.1c0.1-0.1,0.3-0.2,0.4-0.3L386.1,189.5z"/>
	<path class="st35" d="M516.3,166.2c0,57.8,50.6,43.3,72.2,50.6c12.6,4.1,21.2,15.7,21.7,28.9c0,0-21.7-14.4-43.3-7.2
		c-21.7,7.2-36.1,7.2-43.3,0L516.3,166.2z"/>
	<path class="st36" d="M339.3,97.5c-28-7-32.6,40.1-32.7,43.3c-4.4-17.9-17.5-42.9-16.6-68.6c0.8-20.9,13.8-42.4,24.8-60
		c1.5,14.2,9.2,27,21,35.1C333.5,64.5,338.6,84.5,339.3,97.5z"/>
	<path class="st37" d="M379,93.9c0,3.4,0.2,6.9,0.5,10.3c-9-23.9-37.5-13.8-40.2-6.7c-5.3-16.2-6.5-33.4-3.5-50.1
		c14.8,8.8,31.9,12.6,49.1,11.1C381,69.9,379,81.9,379,93.9z"/>
	<path class="st36" d="M570.4,97.6c28-7,32.6,40.1,32.7,43.3c4.2-17.3,19.8-39.5,19.2-64.3c-0.5-21.7-16-45.9-27.5-64.3
		c-1.5,14.2-9.2,27-21,35.1C576.1,64.6,571.1,84.6,570.4,97.6z"/>
	<path class="st37" d="M530.7,94c0,3.4-0.2,6.9-0.5,10.3c9-23.9,37.6-13.8,40.2-6.7c5.3-16.2,6.5-33.4,3.5-50.1
		c-14.8,8.8-31.9,12.6-49.1,11.1C528.7,70,530.7,82,530.7,94z"/>
	<path class="st38" d="M606.6,419c8.1-25.9-4.3-53.7-28.9-65c-33.4-16.7-66.7-20.5-83.6-44.4l-79.5-40.5c-10.8,26.6-31,50.3-68.1,56
		c-93.9,14.4-86.7,93.9-86.7,93.9c-28.9-43.3-7.2-115.6,65-130c27.4-5.5,42.3-29.5,50.2-57.4v-0.1c3.8-13.7,6.3-27.8,7.4-42
		c1.6-18.4,1.7-37,0.5-55.4V134c-3.8-9.5-6.2-19.5-7.1-29.7v-0.1c-0.4-3.4-0.5-6.9-0.5-10.3c0-12,2-24,5.9-35.4
		C393,24.2,421.6,0,454.9,0c43.9,0,79.5,42,79.5,93.9c0.1,16.9-3.8,33.6-11.5,48.7v0.1c-5.1,41.5-8.4,118.3,33.2,139.1
		C613.8,310.6,649.9,361.2,606.6,419z"/>
	<path class="st39" d="M411.5,86.7l28.9,21.7c0,0-14.4,14.4-28.9,7.2C397.1,108.4,411.5,86.7,411.5,86.7z"/>
	<path class="st39" d="M498.2,86.7l-28.9,21.7c0,0,14.4,14.4,28.9,7.2C512.7,108.4,498.2,86.7,498.2,86.7z"/>
	<path class="st35" d="M440.4,170.7c-7.2,80,52.1,213.3,7.2,248.3c0,0,50.6-7.2,50.6-65c0-47.5-17.1-116.9-19.1-160.2
		c-0.4-7.9-4-15.3-10-20.5c-6-5.2-13.9-7.6-21.7-6.8C443.4,167,440.6,168.3,440.4,170.7z"/>
	<path class="st40" d="M454.9,166.7c-2.7,6.8-4.8,13.7-6.4,20.8c-2.6,11.2-3.4,22.7-2.4,34.2c1.8,18.2,11.9,34.1,14.2,52.3
		c1.3,12.5,0.8,25.1-1.4,37.5c-3.5,22.1-12.5,43-26.2,60.8c-8.6,11.1-20.3,19.3-33.6,23.7c-17.5,4.5-36,2.4-52-6
		c29.4,0.1,54.1-21.7,66.3-47.2c8.9-19.2,10.3-41,4-61.1c-1-4.1-2-8.3-2.7-12.5c-1.6-7.7-2.7-15.5-3.6-23.2
		c-1.6-14.7-2.2-29.5-1.8-44.4c0.4-19.7,16.5-35.4,36.1-35.4C448.5,166,451.7,166.1,454.9,166.7z"/>
	<g>
		<path class="st37" d="M306.6,140.8v0.1c-41.8-34.5-56.8,6.7-58.1,10.5C250.4,12.7,314,0,314,0c0,4.1,0.3,8.2,0.9,12.3
			C290.4,51.5,298.7,108.3,306.6,140.8z"/>
		<path class="st37" d="M603,140.9v0.1c41.8-34.5,56.8,6.7,58.1,10.5C659.3,12.8,595.7,0.1,595.7,0.1c0,4.1-0.3,8.2-0.9,12.3
			C619.3,51.6,611,108.4,603,140.9z"/>
	</g>
</g>
<g>
	<path class="st41" d="M744.6,458.7h-19.3c-4.7,0-8.5-3.8-8.5-8.5s3.8-8.5,8.5-8.5h19.3c4.7,0,8.5,3.8,8.5,8.5
		S749.4,458.7,744.6,458.7z"/>
	<rect x="741.2" y="345.7" class="st42" width="11.4" height="261.3"/>
	<path class="st41" d="M756,466.7c-4.7,0-8.5-3.8-8.5-8.5v-13.6c0-4.7,3.8-8.5,8.5-8.5s8.5,3.8,8.5,8.5v13.6
		C764.5,462.9,760.7,466.7,756,466.7z"/>
	<path class="st42" d="M754.3,370.7h-14.8c-3.1,0-5.7-2.5-5.7-5.7s2.5-5.7,5.7-5.7h14.8c3.1,0,5.7,2.5,5.7,5.7
		S757.4,370.7,754.3,370.7z"/>
	<path class="st41" d="M477.6,458.7h-19.3c-4.7,0-8.5-3.8-8.5-8.5s3.8-8.5,8.5-8.5h19.3c4.7,0,8.5,3.8,8.5,8.5
		C486.1,454.9,482.3,458.7,477.6,458.7z"/>
	<path class="st43" d="M450.1,472.9l-23.5-121.5l40,117.1c1.5,4.5-0.9,9.3-5.3,10.8c-4.5,1.5-9.3-0.9-10.8-5.3
		C450.3,473.6,450.2,473.2,450.1,472.9z"/>
	<path class="st44" d="M667.6,205.5l-0.1,0.9c-20.4-2.2-42.7-3.4-66-3.4c-8.4,0-16.6,0.1-24.7,0.5c-14.4,0.5-28.2,1.5-41.3,3
		l-0.1-0.9L601.5,95L667.6,205.5z"/>
	<path class="st45" d="M601.5,95l-23.3,108l-1.4,0.5c-14.4,0.5-28.2,1.5-41.3,3l-0.1-0.9L601.5,95z"/>
	<path class="st44" d="M580.6,461.1c1.2-0.5,76-32.5,81.6-92.7l6.2,36.7l10.2,60.2l0,0l24,141.6H500.4l24-141.6l10.2-60.2l7.9-46.6
		c1.3,13,6.3,35.6,25,46.4C594.7,420.8,592.5,449.3,580.6,461.1z"/>
	<polyline class="st45" points="579.4,380.9 561,607 500.4,607 540.6,369.8 550.7,324 	"/>
	<g>
		<path class="st44" d="M782.9,250.7c0,18.3-35.6,34.3-88.8,43c1.2-3.7,1.9-7.3,1.9-10.1c0-11.9-7.6-21.6-17-21.6
			c-1.4,0-2.7,0.2-4,0.6c-1.2-10-3.6-19.5-6.9-28.3c-20.3-2.1-42.9-3.3-66.6-3.3s-46.3,1.2-66.6,3.3c-3.3,8.8-5.7,18.3-6.9,28.3
			c-1.3-0.4-2.6-0.6-4-0.6c-9.4,0-17,9.7-17,21.6c0,2.9,0.7,6.4,1.9,10.1c-53.2-8.7-88.8-24.7-88.8-43c0-21.2,47.9-39.3,115.4-46.6
			c20.4-2.2,42.7-3.4,66-3.4c12.3,0,24.4,0.3,36,1l0,0c10.3,0.6,20.3,1.4,29.9,2.4C735,211.4,782.9,229.5,782.9,250.7z"/>
		<path class="st44" d="M725.3,436.6v48.9c0,0-32,4.2-46.7-20l0,0l-10.2-60.2c0,0,4.1,6.6,11.3,13.8l0,0
			C689.9,429.1,706.1,440.6,725.3,436.6z"/>
	</g>
	<path class="st41" d="M696,283.6c0,2.9-0.7,6.4-1.9,10.1c-3.8,11.8-12.7,25.5-19.4,25.5l-1.1,0.7c-12.6-11.6-19.2-28.6-32.3-32.9
		c-20.4-6.8-39.8,17-39.8,17s-19.3-23.9-39.8-17c-4.5,1.5-8.2,4.5-11.7,8.2c-6.6,7.2-12.3,17.1-20.6,24.7l-1.1-0.7
		c-6.8,0-15.6-13.7-19.4-25.5c-1.2-3.7-1.9-7.3-1.9-10.1c0-11.9,7.6-21.6,17-21.6c1.4,0,2.7,0.2,4,0.6c1.2-10,3.6-19.5,6.9-28.3
		c20.3-2.1,42.9-3.3,66.6-3.3c23.7,0,46.3,1.2,66.6,3.3c1.8,4.7,3.3,9.5,4.5,14.6c1.1,4.4,1.9,9,2.4,13.7c1.3-0.4,2.6-0.6,4-0.6
		C688.4,262,696,271.7,696,283.6z"/>
	<path class="st46" d="M601.5,312.6c-4.7,0-8.5-3.8-8.5-8.5v-21.6c0-4.7,3.8-8.5,8.5-8.5s8.5,3.8,8.5,8.5V304
		C610,308.7,606.2,312.6,601.5,312.6z"/>
	<path class="st47" d="M662.2,368.5c-5.6,60.2-80.4,92.1-81.6,92.7c11.8-11.9,14-40.4-13.2-56.1c-18.3-10.6-23.5-32.5-24.9-45.6
		c0-0.3-0.1-0.6-0.1-0.9c-0.1-1.1-0.2-2.1-0.3-3c-0.3-4-0.2-6.6-0.2-6.8c2.7,0.3,5.6,0.5,8.6,0.5c23.8,0,40.6-25.7,47.4-38.3
		c2.2-4.1,3.4-6.9,3.4-6.9s1.2,2.7,3.4,6.9c6.8,12.6,23.7,38.3,47.4,38.3c3.2,0,6.3-0.2,9.2-0.5c0.6,3.6,0.9,7.1,1,10.5
		C662.6,362.4,662.5,365.5,662.2,368.5z"/>
	<path class="st45" d="M601.5,231c-23.7,0-46.3,1.2-66.6,3.3c-3.3,8.8-5.7,18.3-6.9,28.3c-1.3-0.4-2.6-0.6-4-0.6
		c-9.4,0-17,9.7-17,21.6c0,2.9,0.7,6.4,1.9,10.1c-53.2-8.7-88.8-24.7-88.8-43c0-21.2,47.9-39.3,115.4-46.6c20.4-2.2,42.7-3.4,66-3.4
		c12.3,0,24.4,0.3,36,1C636.7,201.8,591.4,204,601.5,231z"/>
	<g>
		<path class="st48" d="M662.5,359.2c-0.3,0-0.6,0.1-1,0.1c-2.9,0.3-6,0.5-9.2,0.5c-31.5,0-50.8-45.2-50.8-45.2s-2.2-8.4,0-10.6
			c6.8,12.6,27.1,45.2,50.8,45.2c3.2,0,6.3-0.2,9.2-0.5C662.1,352.3,662.4,355.8,662.5,359.2z"/>
		<path class="st48" d="M601.5,314.6c0,0-19.3,45.2-50.8,45.2c-2.8,0-5.5-0.1-8.1-0.4c0-0.3-0.1-0.6-0.1-0.9
			c-0.6-5.7-0.4-9.5-0.4-9.8c2.7,0.3,5.6,0.5,8.6,0.5c23.8,0,34-35.4,50.8-45.2C603.7,306.2,601.5,314.6,601.5,314.6z"/>
	</g>
	<path class="st45" d="M534.6,405.2l22.1,41.1l-32.3,19.2l0,0c-14.6,24.3-46.7,20-46.7,20v-48.9
		C510.6,443.4,534.6,405.2,534.6,405.2z"/>
	<path class="st46" d="M672.6,248.9c-36.2-4.7-134.9-12.2-122.5,46.3c-6.6,7.2-12.3,17.1-20.6,24.7l-1.1-0.7
		c-6.8,0-15.6-13.7-19.4-25.5c-1.2-3.7-1.9-7.3-1.9-10.1c0-11.9,7.6-21.6,17-21.6c1.4,0,2.7,0.2,4,0.6c1.2-10,3.6-19.5,6.9-28.3
		c20.3-2.1,42.9-3.3,66.6-3.3c23.7,0,46.3,1.2,66.6,3.3C669.9,239,671.4,243.9,672.6,248.9z"/>
	<path class="st45" d="M725.3,485.4c0,0-32,4.2-46.7-20l0,0l-10.2-60.2c0,0,4.1,6.6,11.3,13.8l0,0
		C680.3,420.4,704,478.7,725.3,485.4z"/>
	<g>
		<path class="st49" d="M584.9,264.5c-3.6-0.2-6-0.3-8.3-0.3h-6.1h-6.1c-2.3,0-4.8,0.1-8.3,0.3c0.2-3.6,2.3-6.5,4.9-8.6
			c2.7-2,6.1-3.1,9.5-3.1s6.8,1.1,9.5,3.1C582.6,258,584.7,260.9,584.9,264.5z"/>
		<path class="st49" d="M647,264.5c-3.6-0.2-6-0.3-8.3-0.3h-6.1h-6.1c-2.3,0-4.8,0.1-8.3,0.3c0.2-3.6,2.3-6.5,4.9-8.6
			c2.7-2,6.1-3.1,9.5-3.1s6.8,1.1,9.5,3.1C644.7,258,646.8,260.9,647,264.5z"/>
	</g>
	<g>
		<path class="st47" d="M661.5,348.7c-2.9,0.3-6,0.5-9.2,0.5c-31.5,0-50.8-45.2-50.8-45.2s19.3-23.9,39.8-17
			c13.1,4.4,19.7,21.3,32.3,32.9c7.1,6.5,16,11.4,29.1,11.4C702.6,331.3,687.5,345.8,661.5,348.7z"/>
		<path class="st47" d="M601.5,304c0,0-19.3,45.2-50.8,45.2c-3,0-5.9-0.2-8.6-0.5c-26.3-2.8-41.7-17.5-41.7-17.5
			c13.1,0,22-4.8,29.1-11.4c12.6-11.6,19.2-28.6,32.3-32.9C582.2,280.2,601.5,304,601.5,304z"/>
	</g>
	<path class="st41" d="M444.7,469c-3.7,0-7.1-2.4-8.2-6.1l-5.7-19.3c-1.3-4.5,1.3-9.3,5.8-10.6c4.5-1.3,9.3,1.3,10.6,5.8l5.7,19.3
		c1.3,4.5-1.3,9.3-5.8,10.6C446.3,468.9,445.5,469,444.7,469z"/>
	<circle class="st50" cx="746.9" cy="331.5" r="19.3"/>
	<path class="st51" d="M739,331.5c0-8.7,5.7-16,13.6-18.5c-1.8-0.6-3.7-0.9-5.7-0.9c-10.7,0-19.3,8.6-19.3,19.3
		c0,10.7,8.6,19.3,19.3,19.3c2,0,3.9-0.3,5.7-0.9C744.7,347.5,739,340.2,739,331.5z"/>
	<path class="st48" d="M580.6,461.1c11.8-11.9,14-40.4-13.2-56.1c-18.3-10.6-23.5-32.5-24.9-45.6c0-0.3-0.1-0.6-0.1-0.9
		c-0.1-1.1-0.2-2.1-0.3-3l2.5-2l22.8,1.9c0,0-2.3,19.7,13.6,35.6C597,407,604.7,437,580.6,461.1z"/>
</g>
</svg>
