<svg id="Capa_1" enable-background="new 0 0 512 512" height="512" viewBox="0 0 512 512" width="512" xmlns="http://www.w3.org/2000/svg"><path d="m403.181 205.127c-10.09-.448-19.517 2.262-27.389 7.218-3.704 2.332-8.387 2.332-12.091 0-7.872-4.956-17.299-7.666-27.389-7.218-23.607 1.049-44.375 21.959-45.268 45.573-1.023 27.052 20.604 49.304 47.427 49.304 4.194 0 8.261-.545 12.133-1.568 12.577-3.323 25.707-3.323 38.284 0 3.872 1.023 7.938 1.568 12.133 1.568 26.824 0 48.45-22.252 47.427-49.304-.892-23.614-21.66-44.524-45.267-45.573z" fill="#e4c8f2"/><path d="m448.449 250.7c-.839-22.19-19.23-41.99-41.035-45.167 3.969 6.558 6.411 14.007 6.703 21.753 1.023 27.052-20.604 49.304-47.427 49.304-4.194 0-8.261-.545-12.133-1.568-12.577-3.323-25.707-3.323-38.284 0-3.872 1.023-7.938 1.568-12.133 1.568-2.34 0-4.637-.179-6.887-.506 8.179 14.29 23.573 23.92 41.218 23.92 4.194 0 8.261-.545 12.133-1.568 12.577-3.323 25.707-3.323 38.284 0 3.872 1.023 7.938 1.568 12.133 1.568 26.824 0 48.451-22.252 47.428-49.304z" fill="#d5b0ec"/><path d="m274.787 290.377h-4.648c-40.717 0-73.724-33.007-73.724-73.724v-12.369c0-40.717 33.007-73.724 73.724-73.724h4.648c40.717 0 73.724 33.007 73.724 73.724v12.369c0 40.716-33.007 73.724-73.724 73.724z" fill="#554e57"/><path d="m300.072 135.011c7.716 11.653 12.22 25.618 12.22 40.641v12.368c0 40.717-33.008 73.724-73.724 73.724h-4.648c-8.883 0-17.398-1.573-25.285-4.452 13.197 19.931 35.81 33.084 61.505 33.084h4.648c40.717 0 73.724-33.008 73.724-73.724v-12.368c-.001-31.834-20.178-58.954-48.44-69.273z" fill="#453e43"/><path d="m359.429 109.597v-102.832c0-5.49-6.193-8.681-10.669-5.504-10.669 7.574-27.005 20.851-37.883 37.53-.47.721-1.386.986-2.169.627-11.035-5.062-23.31-7.885-36.245-7.885-12.955 0-25.248 2.831-36.296 7.908-.783.36-1.7.095-2.17-.627-10.878-16.69-27.223-29.975-37.897-37.552-4.477-3.178-10.669.014-10.669 5.503v102.832 8.969c0 36.635 50.558 63.636 74.606 74.407 7.91 3.543 16.943 3.543 24.853 0 24.048-10.771 74.606-37.771 74.606-74.407 0-1.092-.067-8.969-.067-8.969z" fill="#695e66"/><path d="m359.429 109.597v-102.832c0-5.49-6.193-8.681-10.669-5.503-6.186 4.391-14.275 10.71-22.103 18.487v79.002s.067 7.877.067 8.969c0 36.635-50.558 63.636-74.606 74.406-2.92 1.308-5.993 2.129-9.106 2.472 6.325 3.407 12.207 6.217 17.025 8.375 7.91 3.543 16.943 3.543 24.853 0 24.048-10.771 74.606-37.771 74.606-74.407 0-1.092-.067-8.969-.067-8.969z" fill="#453e43"/><path d="m248.012 111.16c.644.729.644 1.823 0 2.552-2.473 2.799-8.988 9.232-16.635 9.232s-14.162-6.433-16.635-9.232c-.644-.729-.644-1.823 0-2.552 2.473-2.799 8.988-9.232 16.635-9.232s14.162 6.433 16.635 9.232z" fill="#fbcb80"/><path d="m328.926 111.16c.644.729.644 1.823 0 2.552-2.473 2.799-8.988 9.232-16.635 9.232-7.648 0-14.162-6.433-16.635-9.232-.644-.729-.644-1.823 0-2.552 2.473-2.799 8.988-9.232 16.635-9.232 7.648 0 14.162 6.433 16.635 9.232z" fill="#fbcb80"/><path d="m261.459 152.72c-2.167 0-4.322-.906-5.852-2.671-2.797-3.23-2.446-8.116.783-10.913l11.008-9.534c2.907-2.518 7.223-2.517 10.13-.001l11.008 9.534c3.23 2.797 3.581 7.683.783 10.914-2.797 3.228-7.683 3.58-10.913.784l-5.943-5.148-5.943 5.147c-1.463 1.267-3.267 1.888-5.061 1.888z" fill="#453e43"/><path d="m307.032 256.125c-5.28-.131-10.368.605-15.137 2.071-4.754 1.462-9.871-.486-12.606-4.641-11.249-17.089-30.594-28.373-52.583-28.373s-41.335 11.284-52.583 28.373c-2.735 4.155-7.852 6.103-12.606 4.641-4.769-1.466-9.857-2.202-15.137-2.071-24.891.618-45.333 20.811-46.229 45.693-.973 27.012 20.636 49.216 47.431 49.216 5.311 0 10.418-.873 15.185-2.484 14.701-4.967 30.606-4.847 45.438-.284 5.849 1.799 12.062 2.768 18.502 2.768s12.653-.969 18.502-2.768c14.832-4.563 30.736-4.682 45.438.284 4.767 1.611 9.874 2.484 15.185 2.484 26.795 0 48.404-22.204 47.431-49.216-.898-24.882-21.34-45.075-46.231-45.693z" fill="#e4c8f2"/><path d="m353.261 301.818c-.828-22.981-18.331-41.948-40.61-45.202 3.737 6.475 5.994 13.894 6.279 21.788.973 27.012-20.636 49.216-47.431 49.216-5.311 0-10.418-.873-15.185-2.484-14.701-4.967-30.606-4.847-45.438-.284-5.849 1.799-12.062 2.768-18.502 2.768s-12.653-.969-18.502-2.768c-14.832-4.562-30.736-4.682-45.438.284-4.767 1.611-9.874 2.484-15.185 2.484-2.34 0-4.636-.179-6.885-.506 8.18 14.289 23.572 23.92 41.217 23.92 5.311 0 10.418-.873 15.185-2.484 14.701-4.967 30.606-4.847 45.438-.284 5.849 1.799 12.062 2.768 18.502 2.768s12.653-.969 18.502-2.768c14.832-4.563 30.736-4.682 45.438.284 4.767 1.611 9.874 2.484 15.185 2.484 26.795.001 48.404-22.204 47.43-49.216z" fill="#d5b0ec"/><path d="m437.977 34.374 2.009 8.207c3.257 13.303 12.501 22.68 25.026 28.222 1.186.79 1.186 2.533 0 3.323-12.525 5.541-21.77 14.919-25.026 28.222l-2.009 8.207c-.413 1.689-2.815 1.689-3.228 0l-2.009-8.207c-3.257-13.303-12.501-22.68-25.026-28.222-1.186-.79-1.186-2.533 0-3.323 12.525-5.541 21.77-14.919 25.026-28.222l2.009-8.207c.413-1.689 2.814-1.689 3.228 0z" fill="#fbd307"/><path d="m446.042 70.802c-7.937-3.512-14.551-8.57-19.164-15.185-4.613 6.616-11.227 11.674-19.164 15.185-1.186.79-1.186 2.533 0 3.323 7.937 3.512 14.551 8.57 19.164 15.185 4.613-6.616 11.227-11.674 19.164-15.185 1.185-.79 1.185-2.533 0-3.323z" fill="#fce25c"/><path d="m121.37 129.652 2.009 8.207c3.257 13.303 12.501 22.68 25.026 28.222 1.186.79 1.186 2.533 0 3.323-12.525 5.541-21.77 14.919-25.026 28.222l-2.009 8.207c-.413 1.689-2.815 1.689-3.228 0l-2.009-8.207c-3.257-13.303-12.501-22.68-25.026-28.222-1.186-.79-1.186-2.533 0-3.323 12.525-5.541 21.77-14.919 25.026-28.222l2.009-8.207c.414-1.688 2.815-1.688 3.228 0z" fill="#fbd307"/><path d="m129.435 166.081c-7.937-3.512-14.551-8.57-19.164-15.185-4.613 6.616-11.227 11.674-19.164 15.185-1.186.79-1.186 2.533 0 3.323 7.937 3.512 14.551 8.57 19.164 15.185 4.613-6.616 11.227-11.674 19.164-15.185 1.186-.791 1.186-2.533 0-3.323z" fill="#fce25c"/><path d="m71.351 193.887 2.009 8.207c3.257 13.303 12.501 22.68 25.026 28.222 1.186.79 1.186 2.533 0 3.323-12.525 5.541-21.77 14.919-25.026 28.222l-2.009 8.207c-.413 1.689-2.815 1.689-3.228 0l-2.009-8.207c-3.257-13.303-12.501-22.68-25.026-28.222-1.186-.79-1.186-2.533 0-3.323 12.525-5.541 21.77-14.919 25.026-28.222l2.009-8.207c.414-1.689 2.815-1.689 3.228 0z" fill="#fbd307"/><path d="m79.416 230.315c-7.937-3.512-14.551-8.57-19.164-15.185-4.613 6.616-11.227 11.674-19.164 15.185-1.186.79-1.186 2.533 0 3.323 7.937 3.512 14.551 8.57 19.164 15.185 4.613-6.616 11.227-11.674 19.164-15.185 1.186-.79 1.186-2.532 0-3.323z" fill="#fce25c"/><path d="m457.321 485.269h-321.025c-23.241 0-42.082-18.841-42.082-42.082v-13c0-23.241 18.841-42.082 42.082-42.082h321.025s-10.448 26.168-10.448 48.582 10.448 48.582 10.448 48.582z" fill="#eedfda"/><path d="m366.897 466.887h-119.868c-4.273 0-7.736-3.463-7.736-7.736s3.464-7.736 7.736-7.736h119.868c4.273 0 7.736 3.463 7.736 7.736.001 4.273-3.463 7.736-7.736 7.736z" fill="#c9beb9"/><path d="m457.321 388.105h-36.831s-10.448 26.168-10.448 48.582 10.448 48.582 10.448 48.582h36.831s-10.448-26.168-10.448-48.582 10.448-48.582 10.448-48.582z" fill="#ded0cb"/><path d="m464.065 493.006h-327.769c-27.47 0-49.819-22.348-49.819-49.818v-13.001c0-27.47 22.348-49.818 49.819-49.818h327.769c4.273 0 7.736 3.463 7.736 7.736s-3.464 7.736-7.736 7.736h-327.769c-18.939 0-34.346 15.407-34.346 34.345v13.001c0 18.938 15.407 34.345 34.346 34.345h327.769c4.273 0 7.736 3.463 7.736 7.736s-3.464 7.738-7.736 7.738z" fill="#453e43"/><path d="m199.002 511.402-21.713-15.88-21.713 15.88c-2.028 1.484-4.883.035-4.883-2.478v-76.043h53.191v76.043c.001 2.513-2.853 3.962-4.882 2.478z" fill="#e7b467"/><path d="m177.29 432.881v62.642l21.713 15.88c2.028 1.483 4.883.035 4.883-2.478v-76.043h-26.596z" fill="#d7a85f"/><path d="m311.156 440.48h-176.37c-4.273 0-7.736-3.463-7.736-7.736s3.464-7.736 7.736-7.736h176.37c4.273 0 7.736 3.463 7.736 7.736s-3.463 7.736-7.736 7.736z" fill="#c9beb9"/></svg>