<?xml version="1.0" encoding="utf-8"?>
<!-- Generator: Adobe Illustrator 23.0.3, SVG Export Plug-In . SVG Version: 6.00 Build 0)  -->
<svg version="1.1" id="Layer_1" xmlns="http://www.w3.org/2000/svg" xmlns:xlink="http://www.w3.org/1999/xlink" x="0px" y="0px"
	 viewBox="0 0 511.9 433.5" style="enable-background:new 0 0 511.9 433.5;" xml:space="preserve">
<style type="text/css">
	.st0{fill:#1F8C65;}
	.st1{opacity:0.2;}
	.st2{fill:#231F20;}
</style>
<path class="st0" d="M504.3,331.6H439c-15.5,0-28.1,12.6-28.1,28.1v4.7c0,15.5,12.6,28.1,28.1,28.1h10.4c7.1,0,12.9,5.8,12.9,12.9
	s-5.8,12.9-12.9,12.9H295.8c23.5-9.3,45.7-23,65.4-40.9c0,0,0.1-0.1,0.1-0.1c2.5-2.3,5-4.6,7.4-7c2.1-2.1,4.2-4.3,6.2-6.5
	c0,0,0,0,0.1-0.1c1.4-1.6,2.8-3.1,4.2-4.7c0.1-0.1,0.1-0.1,0.2-0.2c0.9-1.1,1.9-2.2,2.8-3.3c0.2-0.3,0.5-0.5,0.7-0.8
	c0.8-1,1.6-2,2.4-3c0.3-0.4,0.6-0.8,1-1.2c0.7-0.9,1.4-1.8,2.1-2.8c0.4-0.5,0.8-1,1.1-1.5c0.6-0.8,1.2-1.7,1.8-2.5
	c0.4-0.6,0.9-1.2,1.3-1.9c0.3-0.4,0.6-0.9,0.9-1.3c0,0,0,0,0,0c2.9-4.2,5.7-8.5,8.3-12.9l0,0c0.1-0.2,0.2-0.4,0.4-0.6
	c6.9-11.8,12.8-24.2,17.4-37.3l0.1,0c1.7-4.9,3.3-9.8,4.6-14.8c0,0,0,0,0,0c4-14.5,6.5-29.5,7.4-45l0.1,0c0.3-5.9,0.4-11.8,0.3-17.7
	c0,0,0,0-0.1,0c-0.4-14.5-2.2-28.7-5.2-42.3c0,0,0,0,0,0c-0.1-0.4-0.2-0.7-0.2-1.1c-0.1-0.6-0.3-1.1-0.4-1.7
	c-0.4-1.7-0.8-3.5-1.3-5.2c0-0.1,0-0.2-0.1-0.2c-0.3-1.2-0.7-2.5-1-3.7c-0.4-1.4-0.8-2.7-1.2-4.1l0,0c-5.7-18.5-13.8-35.9-24-51.9
	c-0.1-0.1-0.2-0.2-0.2-0.4c-0.3-0.5-0.7-1.1-1-1.6c-0.3-0.4-0.5-0.8-0.8-1.2c-1-1.5-2-3-3-4.5c-0.6-0.9-1.3-1.9-1.9-2.8l0,0
	c0,0,0,0,0,0c0,0,0,0,0,0c-13.4-18.7-29.8-35.2-48.4-48.7c-0.2-0.1-0.4-0.3-0.5-0.4c0,0,0,0,0,0c-16.2-11.7-34-21.2-53.1-28.1l0,0
	c-0.1,0-0.2-0.1-0.3-0.1c-0.1,0-0.1,0-0.2-0.1l0.2-0.1c-2.6-0.8-5.2-1.6-7.8-2.4c-17.6-5.6-36.2-9-55.5-9.8c0,0,0,0,0,0
	c-5.8-0.3-11.6-0.3-17.4-0.1l0,0c-35.4,1.2-68.7,10.9-97.8,27.2l0-0.1c-4.4,2.5-8.8,5.1-13.1,8c0,0,0,0,0,0
	c-11.9,7.8-22.9,16.7-33,26.6l0,0c-0.5,0.4-0.9,0.9-1.4,1.3c-3.5,3.5-6.8,7-10,10.7c0,0,0,0.1,0,0.1c-10.4,11.9-19.6,25-27.2,39.1
	l-0.1-0.1c-3.2,5.8-6.1,11.8-8.6,17.8c0,0,0,0.1,0.1,0.1c-8.1,18.9-13.6,39.2-16,60.4l0,0C0.3,202.4-0.2,212.2,0,222
	c0,0,0,0.1,0.1,0.1c0.8,37,10.8,71.7,28,101.9c0,0,0,0,0,0.1c3.2,5.6,6.6,11.1,10.4,16.5l0,0c11.8,17.1,26.1,32.3,42.2,45.3
	c0,0,0,0,0,0c0.3,0.2,0.5,0.4,0.8,0.6c0.7,0.6,1.4,1.1,2.2,1.7c0.3,0.2,0.5,0.4,0.8,0.6c2.7,2.1,5.5,4.1,8.3,6.1
	c0.3,0.2,0.6,0.5,1,0.7l0,0c14.8,10.2,31,18.6,48.2,24.9c0,0,0,0,0,0c0.1,0,0.2,0.1,0.2,0.1c13.7,5,28.1,8.7,43,10.8
	c0,0-0.1,0-0.1,0c5.9,0.8,11.8,1.4,17.7,1.8c0.8,0.2,1.6,0.4,2.4,0.4h6.3h2.4c0.8,0,1.6,0,2.3,0c0.7,0,1.4,0,2.1,0h231.3
	c15.5,0,28.1-12.6,28.1-28.1s-12.6-28.1-28.1-28.1H439c-7.1,0-12.9-5.8-12.9-12.9v-4.7c0-7.1,5.8-12.9,12.9-12.9h65.3
	c4.2,0,7.6-3.4,7.6-7.6S508.5,331.6,504.3,331.6z"/>
<g class="st1">
	<path class="st2" d="M504.3,331.6H439c-15.5,0-28.1,12.6-28.1,28.1v4.7c0,15.5,12.6,28.1,28.1,28.1h10.4c7.1,0,12.9,5.8,12.9,12.9
		s-5.8,12.9-12.9,12.9H295.8c23.5-9.3,45.7-23,65.4-40.9c0,0,0.1-0.1,0.1-0.1c2.5-2.3,5-4.6,7.4-7c2.1-2.1,4.2-4.3,6.2-6.5
		c0,0,0,0,0.1-0.1c1.4-1.6,2.8-3.1,4.2-4.7c0.1-0.1,0.1-0.1,0.2-0.2c0.9-1.1,1.9-2.2,2.8-3.3c0.2-0.3,0.5-0.5,0.7-0.8
		c0.8-1,1.6-2,2.4-3c0.3-0.4,0.6-0.8,1-1.2c0.7-0.9,1.4-1.8,2.1-2.8c0.4-0.5,0.8-1,1.1-1.5c0.6-0.8,1.2-1.7,1.8-2.5
		c0.4-0.6,0.9-1.2,1.3-1.9c0.3-0.4,0.6-0.9,0.9-1.3c0,0,0,0,0,0c2.9-4.2,5.7-8.5,8.3-12.9l0,0c0.1-0.2,0.2-0.4,0.4-0.6
		c6.9-11.8,12.8-24.2,17.4-37.3l0.1,0c1.7-4.9,3.3-9.8,4.6-14.8c0,0,0,0,0,0c4-14.5,6.5-29.5,7.4-45l0.1,0
		c0.3-5.9,0.4-11.8,0.3-17.7c0,0,0,0-0.1,0c-0.4-14.5-2.2-28.7-5.2-42.3c0,0,0,0,0,0c-0.1-0.4-0.2-0.7-0.2-1.1
		c-0.1-0.6-0.3-1.1-0.4-1.7c-0.4-1.7-0.8-3.5-1.3-5.2c0-0.1,0-0.2-0.1-0.2c-0.3-1.2-0.7-2.5-1-3.7c-0.4-1.4-0.8-2.7-1.2-4.1l0,0
		c-5.7-18.5-13.8-35.9-24-51.9c-0.1-0.1-0.2-0.2-0.2-0.4c-0.3-0.5-0.7-1.1-1-1.6c-0.3-0.4-0.5-0.8-0.8-1.2c-1-1.5-2-3-3-4.5
		c-0.6-0.9-1.3-1.9-1.9-2.8l0,0c0,0,0,0,0,0c0,0,0,0,0,0c-13.4-18.7-29.8-35.2-48.4-48.7c-0.2-0.1-0.4-0.3-0.5-0.4c0,0,0,0,0,0
		c-16.2-11.7-34-21.2-53.1-28.1l0,0c-0.1,0-0.2-0.1-0.3-0.1c-0.1,0-0.1,0-0.2-0.1l0.2-0.1c-2.6-0.8-5.2-1.6-7.8-2.4
		c-17.6-5.6-36.2-9-55.5-9.8c0,0,0,0,0,0c-5.8-0.3-11.6-0.3-17.4-0.1l0,0l0,0.1c-7.9,0.3-15.8,1-23.7,2.1c9.5,1.4,18.9,3.4,28.2,6
		c7.6,2.2,15.1,4.7,22.5,7.8c4.6,1.9,9.1,3.9,13.5,6.1c4.9,2.4,9.7,5,14.5,7.8c15.3,9.1,29.8,20.2,43,33.3c0.5,0.5,0.9,1,1.4,1.4
		c3,3.1,5.9,6.2,8.7,9.4c0.5,0.6,1.1,1.2,1.6,1.9c0,0,0,0,0,0c0,0,0,0,0,0c12.1,14.2,22,29.5,29.9,45.6c1.2,2.5,2.3,4.9,3.4,7.4
		c0.4,0.8,0.7,1.6,1,2.4c0.2,0.5,0.4,1,0.7,1.6c0.4,1,0.8,2,1.2,3.1c0,0,0,0,0,0c0,0,0,0,0,0c7.8,19.6,12.6,40.2,14.4,61
		c0,0,0,0-0.1,0.1c0,0,0,0.1,0,0.1c0.6,6.8,0.9,13.5,0.8,20.2c0,0,0.1-0.1,0.1-0.1c0,0,0,0.1,0,0.1c0,7.4-0.5,14.9-1.3,22.3
		c0,0.4-0.1,0.7-0.1,1.1c-0.1,0.5-0.1,1.1-0.2,1.6c-0.4,3.4-0.9,6.7-1.5,10c-0.2,1.3-0.5,2.5-0.7,3.8c0,0,0,0,0,0c0,0.1,0,0.1,0,0.2
		c-2.8,14.7-7.1,29.1-12.9,43.1c0,0,0,0,0,0c0,0,0,0,0,0c-2,4.7-4.1,9.3-6.4,13.9c0,0,0,0,0,0c0,0,0,0,0,0.1
		c-6.4,12.7-14.1,24.8-23.2,36.3c0,0,0,0,0,0c0,0,0,0,0,0c-3.2,4-6.5,8-10,11.8c0,0,0,0,0,0c0,0,0,0-0.1,0.1
		c-2.2,2.4-4.5,4.9-6.9,7.2c-8.4,8.4-17.4,16-26.8,22.8c0,0-0.1,0-0.1-0.1c0,0,0,0-0.1,0c-4.6,3.3-9.4,6.4-14.1,9.4
		c0,0,0.1,0,0.1,0.1c0,0,0,0,0,0c-10.2,6.2-20.9,11.5-31.8,15.8h-0.1c0,0,0,0,0,0c-1.1,0.4-2.1,0.8-3.2,1.2
		c-0.2,0.1-0.4,0.1-0.6,0.2c-1,0.4-2,0.7-3,1.1c-0.5,0.2-0.9,0.3-1.4,0.5c-1,0.3-1.9,0.7-2.9,1c-0.5,0.2-1,0.3-1.4,0.5
		c-1,0.3-2,0.7-3,1c-0.3,0.1-0.6,0.2-1,0.3c-0.9,0.3-1.9,0.6-2.8,0.8c-5.4,1.6-10.8,2.9-16.3,4.1c-4.3,0.9-8.7,1.7-13,2.3
		c0,0-0.1,0-0.1,0c5.9,0.8,11.8,1.4,17.7,1.8c0.8,0.2,1.6,0.4,2.4,0.4h6.3h2.4c0.8,0,1.6,0,2.3,0c0.7,0,1.4,0,2.1,0h231.3
		c15.5,0,28.1-12.6,28.1-28.1s-12.6-28.1-28.1-28.1H439c-7.1,0-12.9-5.8-12.9-12.9v-4.7c0-7.1,5.8-12.9,12.9-12.9h65.3
		c4.2,0,7.6-3.4,7.6-7.6S508.5,331.6,504.3,331.6z"/>
	<path class="st2" d="M141.8,420.4c0.1,0,0.2,0.1,0.2,0.1C142,420.5,141.9,420.4,141.8,420.4C141.8,420.4,141.8,420.4,141.8,420.4z"
		/>
</g>
<g class="st1">
	<path class="st2" d="M354.5,136.1C354.5,136.1,354.5,136.1,354.5,136.1C354.5,136.1,354.5,136.1,354.5,136.1
		c10.7-8.6,21.6-16.8,32.8-24.7c0.5-0.3,0.9-0.7,1.4-1c1.5-1,2.9-2,4.4-3.1c2.2-1.5,4.5-3.1,6.7-4.6c0,0,0,0,0,0c0,0,0,0,0,0
		c-0.4-0.7-0.9-1.5-1.4-2.2c-0.1-0.1-0.2-0.2-0.2-0.4c-0.3-0.5-0.7-1.1-1-1.6c-0.3-0.4-0.5-0.8-0.8-1.2c-1-1.5-2-3-3-4.5
		c-0.6-0.9-1.3-1.9-1.9-2.8l0,0c0,0,0,0,0,0c0,0,0,0,0,0c0,0,0,0,0,0c-8.9,5.9-17.7,12.1-26.3,18.5c0,0-0.1,0.1-0.1,0.1
		c-2.5,1.9-5,3.8-7.5,5.7c-0.9,0.7-1.7,1.3-2.6,2c-1.3,1-2.6,2-3.9,3c-1,0.8-2,1.5-2.9,2.3c-75.7,60.3-136.5,137.2-177.6,224.9
		c0,0.1-0.1,0.1-0.1,0.2l-12.3,27.9c0,0.1-0.1,0.1-0.1,0.2c-5.9,14.4-11.4,29.3-16.2,44.1c0,0,0,0,0,0c0.1,0,0.2,0.1,0.2,0.1
		c4.7,1.7,9.4,3.2,14.3,4.6c4.7-14.5,10-28.9,15.8-42.9l12.2-27.8C223.9,268.6,282.1,194.6,354.5,136.1z"/>
	<path class="st2" d="M318.3,76.1c11.3-8.3,22.9-16.2,34.8-23.8l2.1-1.3l0,0c-0.1-0.1-0.2-0.1-0.2-0.2c-0.6-0.5-1.2-1-1.7-1.5
		c-1.1-0.9-2.3-1.8-3.4-2.8c-0.4-0.3-0.8-0.6-1.1-0.9c-1.1-0.9-2.2-1.7-3.4-2.6c-0.8-0.6-1.5-1.2-2.3-1.7c-0.2-0.1-0.4-0.3-0.5-0.4
		c0,0,0,0,0,0c0,0,0,0,0,0c-8.6,5.5-17.1,11.3-25.4,17.2c-0.5,0.3-1,0.7-1.5,1c-1.6,1.2-3.3,2.4-4.9,3.5c-0.9,0.7-1.9,1.3-2.8,2
		c0,0,0,0,0,0c0,0,0,0,0,0c-48.1,35.5-90.8,77.4-127,124.9c-44.6,58.5-78.4,124-100.3,194.7c0,0,0,0,0,0c0.3,0.2,0.5,0.4,0.8,0.6
		c0.7,0.6,1.4,1.1,2.2,1.7c0.3,0.2,0.5,0.4,0.8,0.6c2.7,2.1,5.5,4.1,8.3,6.1c0.3,0.2,0.6,0.5,1,0.7l0,0l0.7-2.6
		c21.4-70,54.6-134.7,98.7-192.6C228.7,152.1,270.8,110.9,318.3,76.1z"/>
	<path class="st2" d="M87.5,226.7c14.2-25.2,30.1-49.4,47.8-72.4c7.8-10.1,15.8-20,24.2-29.6c30.9-35.4,65.7-67.1,104-94.7
		c0,0,0,0,0.1,0c0.1,0.1,0.2,0.1,0.3,0.2c6.7-4.8,13.4-9.5,20.3-14l5.1-3.2l0.1,0l0,0c-0.1,0-0.2-0.1-0.3-0.1c-0.1,0-0.1,0-0.2-0.1
		l0.2-0.1c-2.6-0.8-5.2-1.6-7.8-2.4c-0.7-0.2-1.4-0.4-2.1-0.6c-2.9-0.9-5.8-1.7-8.7-2.5c-0.1,0-0.1,0-0.1,0c0,0,0,0,0,0
		c-7.3,4.9-14.4,9.9-21.4,15.1c0,0,0,0,0,0c0,0,0,0,0,0c-2.2,1.6-4.3,3.2-6.5,4.9c-1.4-2.1-2.8-4.2-4.1-6.3c-1-1.5-2-3.1-2.9-4.6
		c-0.1-0.1-0.1-0.2-0.2-0.2c0.1,0,0.1,0.1,0.2,0.1c-3.3-5.1-6.5-10.3-9.6-15.6c0,0,0-0.1,0-0.1c0,0,0,0,0,0
		c-5.8-0.3-11.6-0.3-17.4-0.1l0,0l0,0.1l0,0.1c0,0,0,0,0,0l1.7,3.3c0.1,0.1,0.1,0.2,0.2,0.3c0.4,0.6,0.8,1.3,1.1,1.9
		c0,0.1,0.1,0.1,0.1,0.2c0.5,0.8,0.9,1.5,1.4,2.3c4.1,6.9,8.3,13.8,12.6,20.6c1.6,2.5,3.2,5,4.9,7.5c-11.5,9.2-22.7,18.7-33.5,28.6
		c-0.4-0.6-0.8-1.2-1.2-1.8C184.2,45,173.3,25.9,163.6,6.5c-5,1.2-9.9,2.7-14.9,4.3l0.4,1c0,0.1,0.1,0.1,0.1,0.2
		c10.2,20.4,21.6,40.4,33.8,59.5c0.9,1.4,1.8,2.8,2.7,4.2c-10.8,10.4-21.1,21.1-31.1,32.2c-0.4-0.7-0.9-1.4-1.3-2.1
		c-3.5-5.4-6.9-10.9-10.2-16.4l-14.9-26.5c-6.1-11.4-11.8-23.1-17.2-34.8l-0.3-0.7l0-0.1c-4.4,2.5-8.8,5.1-13.1,8c0,0,0,0,0,0
		c5.4,11.8,11.2,23.5,17.3,34.8c0,0.1,0.1,0.1,0.1,0.2l15,26.5c0,0.1,0.1,0.1,0.1,0.2c3.4,5.7,6.9,11.4,10.5,16.9
		c1.2,1.9,2.5,3.8,3.7,5.7c-7.1,8.4-14.1,16.9-20.8,25.7c-2.6,3.4-5.2,6.9-7.8,10.4c-1.6-2.5-3.3-5-4.9-7.4
		c-17-26.5-32.1-54.6-45-83.5L64.7,62l0,0c-0.5,0.4-0.9,0.9-1.4,1.3c-3.5,3.5-6.8,7-10,10.7c0,0,0,0.1,0,0.1
		c12.9,28.6,27.9,56.2,44.7,82.4c2.7,4.2,5.4,8.3,8.2,12.4C97,181.9,88.4,195.3,80.4,209c-4.2-6-8.3-12.1-12.2-18.3
		c-14.8-23-28.1-47.2-39.8-72.1l-2.3-5.6l-0.1-0.1c-3.2,5.8-6.1,11.8-8.6,17.8c0,0,0,0.1,0.1,0.1c11.3,23.5,24,46.3,37.9,68
		c5.3,8.3,11,16.6,16.7,24.7c-8,14.5-15.5,29.4-22.3,44.5c-8.4-11.3-16.5-23-24.1-34.8C19.2,223,12.9,212.5,6.9,202l-5.5-10.8l0,0
		c-1.1,9.7-1.6,19.5-1.4,29.3c0,0,0,0.1,0.1,0.1c4.2,7.1,8.4,14,12.7,20.8c9.4,14.6,19.4,28.9,29.9,42.6
		c-5.3,12.6-10.2,25.5-14.7,38.4c0,0,0,0,0,0.1c3.2,5.6,6.6,11.1,10.4,16.5l0,0l1.9-5.5v-0.1c5.4-16.1,11.4-31.9,18-47.4
		c0-0.1,0.1-0.2,0.1-0.3c8.6-20.1,18.3-39.7,29-58.8C87.4,226.8,87.5,226.8,87.5,226.7z"/>
	<path class="st2" d="M432,210.7C432,210.7,432,210.7,432,210.7c-0.1-0.1-0.1-0.1-0.1-0.1c-10.7-6.7-21.3-13.6-31.7-20.9
		c8.6-7.4,17.4-14.5,26.4-21.3c0,0,0,0,0.1,0c0,0,0,0,0,0c-0.1-0.4-0.2-0.7-0.2-1.1c-0.1-0.6-0.3-1.1-0.4-1.7
		c-0.4-1.7-0.8-3.5-1.3-5.2c0-0.1,0-0.2-0.1-0.2c-0.3-1.2-0.7-2.5-1-3.7c-0.4-1.4-0.8-2.7-1.2-4.1l0,0l-0.1,0c0,0,0,0,0-0.1l0,0
		l-2.3,1.7c-12.7,9.5-24.9,19.5-36.8,30c-0.3,0.2-0.6,0.5-0.9,0.8c-4.6,4-9,8.1-13.4,12.1c0,0,0,0-0.1,0.1c0,0,0,0.1,0,0.1
		c-65.7,61.4-117.4,136.1-151.8,219.6c-0.9,2.2-1.8,4.4-2.7,6.6c-0.8,1.9-1.5,3.8-2.3,5.8c0,0.1-0.1,0.2-0.1,0.3l-0.8,2.4
		c0,0,0.1,0,0.1,0l0,0l0,0l0,0h2.4c0.8,0,1.6,0,2.3,0c0.7,0,1.4,0,2.1,0c2.8,0,5.6-0.1,8.4-0.3c0,0,0.1,0,0.1,0c0.1,0,0.3,0,0.4,0
		c0.1,0,0.2,0,0.3,0c0.1,0,0.2,0,0.3,0c0,0,0,0,0,0c0,0,0,0,0,0c2-5,4.1-10,6.2-14.9v0c0,0,0,0,0,0h0h-0.1c4-9.3,8.1-18.6,12.5-27.7
		c6.4,4.1,12.9,8,19.4,11.9c1.7,1,3.3,2,5,2.9c7.8,4.5,15.6,8.8,23.6,12.9c0.2,0.1,0.4,0.2,0.6,0.3c0.2-0.1,0.5-0.2,0.7-0.3
		c5.9-2.3,11.7-4.9,17.4-7.7l-5.5-2.6l0,0c-0.3-0.2-0.6-0.3-0.9-0.5c-2.4-1.2-4.7-2.4-7.1-3.7c-2.7-1.4-5.4-2.9-8.1-4.3
		c-3.8-2.1-7.7-4.2-11.5-6.5c0,0-0.1,0-0.1-0.1c0,0,0,0-0.1,0c-9-5.2-17.9-10.6-26.6-16.1c6.7-13,13.8-25.8,21.4-38.2
		c12.7,8.6,25.7,16.7,39.1,24.4c13,7.5,26.4,14.5,39.9,21.1c4.2-3.5,8.3-7.1,12.3-10.9l-0.1,0c0,0,0,0,0.1-0.1l-2.6-1.3
		c0,0,0,0-0.1,0c-13.4-6.4-26.6-13.3-39.5-20.7c0,0,0,0,0,0c0,0,0,0,0,0c-14-8-27.6-16.4-40.9-25.4c7.9-12.3,16.3-24.4,25.1-36.1
		c12.7,8.9,25.7,17.3,39,25.3c15.3,9.1,30.9,17.7,47,25.5c-0.3,0.4-0.6,0.9-0.9,1.3c0.3-0.4,0.6-0.9,0.9-1.3c0,0,0,0,0,0
		c2.9-4.2,5.7-8.5,8.3-12.9l0,0c0.1-0.2,0.2-0.4,0.4-0.6c-0.1,0.2-0.2,0.4-0.4,0.6l0,0c0,0,0-0.1,0-0.1l-0.7-0.3
		c-16.5-8-32.5-16.7-48.2-26.2c0,0,0,0,0,0c0,0,0,0,0,0c-12.3-7.4-24.4-15.2-36.1-23.3c9.1-11.6,18.7-22.8,28.7-33.7
		c6.7,4.8,13.5,9.4,20.4,14c17,11.2,34.5,21.6,52.5,31.1l1.1,0.5l0,0l0.1,0c1.7-4.9,3.3-9.8,4.6-14.8c0,0,0,0,0,0c0,0,0,0,0,0
		c0,0,0-0.1,0-0.1c0,0,0,0-0.1,0c-19.1-10.2-37.8-21.4-55.7-33.6c0,0,0,0,0,0c0,0,0,0,0,0c-4.2-2.8-8.3-5.6-12.4-8.5
		c4.5-4.7,9.1-9.2,13.7-13.8c6.1-5.9,12.2-11.7,18.6-17.4c12.8,9.2,26.1,18,39.6,26.2l3.6,2.2l0,0c0,0,0,0,0-0.1l0,0l0.1,0
		C432,222.5,432.1,216.6,432,210.7z"/>
</g>
</svg>
